<?xml version="1.0" encoding="utf-8" standalone="no"?>
<!DOCTYPE svg PUBLIC "-//W3C//DTD SVG 1.1//EN"
  "http://www.w3.org/Graphics/SVG/1.1/DTD/svg11.dtd">
<svg xmlns:xlink="http://www.w3.org/1999/xlink" width="626.4pt" height="357.12pt" viewBox="0 0 626.4 357.12" xmlns="http://www.w3.org/2000/svg" version="1.1">
 <metadata>
  <rdf:RDF xmlns:dc="http://purl.org/dc/elements/1.1/" xmlns:cc="http://creativecommons.org/ns#" xmlns:rdf="http://www.w3.org/1999/02/22-rdf-syntax-ns#">
   <cc:Work>
    <dc:type rdf:resource="http://purl.org/dc/dcmitype/StillImage"/>
    <dc:date>2024-03-16T12:38:40.604942</dc:date>
    <dc:format>image/svg+xml</dc:format>
    <dc:creator>
     <cc:Agent>
      <dc:title>Matplotlib v3.7.1, https://matplotlib.org/</dc:title>
     </cc:Agent>
    </dc:creator>
   </cc:Work>
  </rdf:RDF>
 </metadata>
 <defs>
  <style type="text/css">*{stroke-linejoin: round; stroke-linecap: butt}</style>
 </defs>
 <g id="figure_1">
  <g id="patch_1">
   <path d="M 0 357.12 
L 626.4 357.12 
L 626.4 0 
L 0 0 
z
" style="fill: #ffffff"/>
  </g>
  <g id="axes_1">
   <g id="patch_2">
    <path d="M 84.811406 313.761333 
L 611.71875 313.761333 
L 611.71875 11.16 
L 84.811406 11.16 
z
" style="fill: #ffffff"/>
   </g>
   <g id="matplotlib.axis_1">
    <g id="xtick_1">
     <g id="line2d_1">
      <defs>
       <path id="mc32068dd70" d="M 0 0 
L 0 3.5 
" style="stroke: #000000; stroke-width: 0.8"/>
      </defs>
      <g>
       <use xlink:href="#mc32068dd70" x="99.358507" y="313.761333" style="stroke: #000000; stroke-width: 0.8"/>
      </g>
     </g>
     <g id="text_1">
      <!-- 0 -->
      <g transform="translate(96.177257 328.359771) scale(0.1 -0.1)">
       <defs>
        <path id="DejaVuSans-30" d="M 2034 4250 
Q 1547 4250 1301 3770 
Q 1056 3291 1056 2328 
Q 1056 1369 1301 889 
Q 1547 409 2034 409 
Q 2525 409 2770 889 
Q 3016 1369 3016 2328 
Q 3016 3291 2770 3770 
Q 2525 4250 2034 4250 
z
M 2034 4750 
Q 2819 4750 3233 4129 
Q 3647 3509 3647 2328 
Q 3647 1150 3233 529 
Q 2819 -91 2034 -91 
Q 1250 -91 836 529 
Q 422 1150 422 2328 
Q 422 3509 836 4129 
Q 1250 4750 2034 4750 
z
" transform="scale(0.015625)"/>
       </defs>
       <use xlink:href="#DejaVuSans-30"/>
      </g>
     </g>
    </g>
    <g id="xtick_2">
     <g id="line2d_2">
      <g>
       <use xlink:href="#mc32068dd70" x="179.192953" y="313.761333" style="stroke: #000000; stroke-width: 0.8"/>
      </g>
     </g>
     <g id="text_2">
      <!-- 5 -->
      <g transform="translate(176.011703 328.359771) scale(0.1 -0.1)">
       <defs>
        <path id="DejaVuSans-35" d="M 691 4666 
L 3169 4666 
L 3169 4134 
L 1269 4134 
L 1269 2991 
Q 1406 3038 1543 3061 
Q 1681 3084 1819 3084 
Q 2600 3084 3056 2656 
Q 3513 2228 3513 1497 
Q 3513 744 3044 326 
Q 2575 -91 1722 -91 
Q 1428 -91 1123 -41 
Q 819 9 494 109 
L 494 744 
Q 775 591 1075 516 
Q 1375 441 1709 441 
Q 2250 441 2565 725 
Q 2881 1009 2881 1497 
Q 2881 1984 2565 2268 
Q 2250 2553 1709 2553 
Q 1456 2553 1204 2497 
Q 953 2441 691 2322 
L 691 4666 
z
" transform="scale(0.015625)"/>
       </defs>
       <use xlink:href="#DejaVuSans-35"/>
      </g>
     </g>
    </g>
    <g id="xtick_3">
     <g id="line2d_3">
      <g>
       <use xlink:href="#mc32068dd70" x="259.027399" y="313.761333" style="stroke: #000000; stroke-width: 0.8"/>
      </g>
     </g>
     <g id="text_3">
      <!-- 10 -->
      <g transform="translate(252.664899 328.359771) scale(0.1 -0.1)">
       <defs>
        <path id="DejaVuSans-31" d="M 794 531 
L 1825 531 
L 1825 4091 
L 703 3866 
L 703 4441 
L 1819 4666 
L 2450 4666 
L 2450 531 
L 3481 531 
L 3481 0 
L 794 0 
L 794 531 
z
" transform="scale(0.015625)"/>
       </defs>
       <use xlink:href="#DejaVuSans-31"/>
       <use xlink:href="#DejaVuSans-30" x="63.623047"/>
      </g>
     </g>
    </g>
    <g id="xtick_4">
     <g id="line2d_4">
      <g>
       <use xlink:href="#mc32068dd70" x="338.861845" y="313.761333" style="stroke: #000000; stroke-width: 0.8"/>
      </g>
     </g>
     <g id="text_4">
      <!-- 15 -->
      <g transform="translate(332.499345 328.359771) scale(0.1 -0.1)">
       <use xlink:href="#DejaVuSans-31"/>
       <use xlink:href="#DejaVuSans-35" x="63.623047"/>
      </g>
     </g>
    </g>
    <g id="xtick_5">
     <g id="line2d_5">
      <g>
       <use xlink:href="#mc32068dd70" x="418.696291" y="313.761333" style="stroke: #000000; stroke-width: 0.8"/>
      </g>
     </g>
     <g id="text_5">
      <!-- 20 -->
      <g transform="translate(412.333791 328.359771) scale(0.1 -0.1)">
       <defs>
        <path id="DejaVuSans-32" d="M 1228 531 
L 3431 531 
L 3431 0 
L 469 0 
L 469 531 
Q 828 903 1448 1529 
Q 2069 2156 2228 2338 
Q 2531 2678 2651 2914 
Q 2772 3150 2772 3378 
Q 2772 3750 2511 3984 
Q 2250 4219 1831 4219 
Q 1534 4219 1204 4116 
Q 875 4013 500 3803 
L 500 4441 
Q 881 4594 1212 4672 
Q 1544 4750 1819 4750 
Q 2544 4750 2975 4387 
Q 3406 4025 3406 3419 
Q 3406 3131 3298 2873 
Q 3191 2616 2906 2266 
Q 2828 2175 2409 1742 
Q 1991 1309 1228 531 
z
" transform="scale(0.015625)"/>
       </defs>
       <use xlink:href="#DejaVuSans-32"/>
       <use xlink:href="#DejaVuSans-30" x="63.623047"/>
      </g>
     </g>
    </g>
    <g id="xtick_6">
     <g id="line2d_6">
      <g>
       <use xlink:href="#mc32068dd70" x="498.530737" y="313.761333" style="stroke: #000000; stroke-width: 0.8"/>
      </g>
     </g>
     <g id="text_6">
      <!-- 25 -->
      <g transform="translate(492.168237 328.359771) scale(0.1 -0.1)">
       <use xlink:href="#DejaVuSans-32"/>
       <use xlink:href="#DejaVuSans-35" x="63.623047"/>
      </g>
     </g>
    </g>
    <g id="xtick_7">
     <g id="line2d_7">
      <g>
       <use xlink:href="#mc32068dd70" x="578.365183" y="313.761333" style="stroke: #000000; stroke-width: 0.8"/>
      </g>
     </g>
     <g id="text_7">
      <!-- 30 -->
      <g transform="translate(572.002683 328.359771) scale(0.1 -0.1)">
       <defs>
        <path id="DejaVuSans-33" d="M 2597 2516 
Q 3050 2419 3304 2112 
Q 3559 1806 3559 1356 
Q 3559 666 3084 287 
Q 2609 -91 1734 -91 
Q 1441 -91 1130 -33 
Q 819 25 488 141 
L 488 750 
Q 750 597 1062 519 
Q 1375 441 1716 441 
Q 2309 441 2620 675 
Q 2931 909 2931 1356 
Q 2931 1769 2642 2001 
Q 2353 2234 1838 2234 
L 1294 2234 
L 1294 2753 
L 1863 2753 
Q 2328 2753 2575 2939 
Q 2822 3125 2822 3475 
Q 2822 3834 2567 4026 
Q 2313 4219 1838 4219 
Q 1578 4219 1281 4162 
Q 984 4106 628 3988 
L 628 4550 
Q 988 4650 1302 4700 
Q 1616 4750 1894 4750 
Q 2613 4750 3031 4423 
Q 3450 4097 3450 3541 
Q 3450 3153 3228 2886 
Q 3006 2619 2597 2516 
z
" transform="scale(0.015625)"/>
       </defs>
       <use xlink:href="#DejaVuSans-33"/>
       <use xlink:href="#DejaVuSans-30" x="63.623047"/>
      </g>
     </g>
    </g>
    <g id="text_8">
     <!-- Time (s) -->
     <g transform="translate(327.936172 342.037896) scale(0.1 -0.1)">
      <defs>
       <path id="DejaVuSans-54" d="M -19 4666 
L 3928 4666 
L 3928 4134 
L 2272 4134 
L 2272 0 
L 1638 0 
L 1638 4134 
L -19 4134 
L -19 4666 
z
" transform="scale(0.015625)"/>
       <path id="DejaVuSans-69" d="M 603 3500 
L 1178 3500 
L 1178 0 
L 603 0 
L 603 3500 
z
M 603 4863 
L 1178 4863 
L 1178 4134 
L 603 4134 
L 603 4863 
z
" transform="scale(0.015625)"/>
       <path id="DejaVuSans-6d" d="M 3328 2828 
Q 3544 3216 3844 3400 
Q 4144 3584 4550 3584 
Q 5097 3584 5394 3201 
Q 5691 2819 5691 2113 
L 5691 0 
L 5113 0 
L 5113 2094 
Q 5113 2597 4934 2840 
Q 4756 3084 4391 3084 
Q 3944 3084 3684 2787 
Q 3425 2491 3425 1978 
L 3425 0 
L 2847 0 
L 2847 2094 
Q 2847 2600 2669 2842 
Q 2491 3084 2119 3084 
Q 1678 3084 1418 2786 
Q 1159 2488 1159 1978 
L 1159 0 
L 581 0 
L 581 3500 
L 1159 3500 
L 1159 2956 
Q 1356 3278 1631 3431 
Q 1906 3584 2284 3584 
Q 2666 3584 2933 3390 
Q 3200 3197 3328 2828 
z
" transform="scale(0.015625)"/>
       <path id="DejaVuSans-65" d="M 3597 1894 
L 3597 1613 
L 953 1613 
Q 991 1019 1311 708 
Q 1631 397 2203 397 
Q 2534 397 2845 478 
Q 3156 559 3463 722 
L 3463 178 
Q 3153 47 2828 -22 
Q 2503 -91 2169 -91 
Q 1331 -91 842 396 
Q 353 884 353 1716 
Q 353 2575 817 3079 
Q 1281 3584 2069 3584 
Q 2775 3584 3186 3129 
Q 3597 2675 3597 1894 
z
M 3022 2063 
Q 3016 2534 2758 2815 
Q 2500 3097 2075 3097 
Q 1594 3097 1305 2825 
Q 1016 2553 972 2059 
L 3022 2063 
z
" transform="scale(0.015625)"/>
       <path id="DejaVuSans-20" transform="scale(0.015625)"/>
       <path id="DejaVuSans-28" d="M 1984 4856 
Q 1566 4138 1362 3434 
Q 1159 2731 1159 2009 
Q 1159 1288 1364 580 
Q 1569 -128 1984 -844 
L 1484 -844 
Q 1016 -109 783 600 
Q 550 1309 550 2009 
Q 550 2706 781 3412 
Q 1013 4119 1484 4856 
L 1984 4856 
z
" transform="scale(0.015625)"/>
       <path id="DejaVuSans-73" d="M 2834 3397 
L 2834 2853 
Q 2591 2978 2328 3040 
Q 2066 3103 1784 3103 
Q 1356 3103 1142 2972 
Q 928 2841 928 2578 
Q 928 2378 1081 2264 
Q 1234 2150 1697 2047 
L 1894 2003 
Q 2506 1872 2764 1633 
Q 3022 1394 3022 966 
Q 3022 478 2636 193 
Q 2250 -91 1575 -91 
Q 1294 -91 989 -36 
Q 684 19 347 128 
L 347 722 
Q 666 556 975 473 
Q 1284 391 1588 391 
Q 1994 391 2212 530 
Q 2431 669 2431 922 
Q 2431 1156 2273 1281 
Q 2116 1406 1581 1522 
L 1381 1569 
Q 847 1681 609 1914 
Q 372 2147 372 2553 
Q 372 3047 722 3315 
Q 1072 3584 1716 3584 
Q 2034 3584 2315 3537 
Q 2597 3491 2834 3397 
z
" transform="scale(0.015625)"/>
       <path id="DejaVuSans-29" d="M 513 4856 
L 1013 4856 
Q 1481 4119 1714 3412 
Q 1947 2706 1947 2009 
Q 1947 1309 1714 600 
Q 1481 -109 1013 -844 
L 513 -844 
Q 928 -128 1133 580 
Q 1338 1288 1338 2009 
Q 1338 2731 1133 3434 
Q 928 4138 513 4856 
z
" transform="scale(0.015625)"/>
      </defs>
      <use xlink:href="#DejaVuSans-54"/>
      <use xlink:href="#DejaVuSans-69" x="57.958984"/>
      <use xlink:href="#DejaVuSans-6d" x="85.742188"/>
      <use xlink:href="#DejaVuSans-65" x="183.154297"/>
      <use xlink:href="#DejaVuSans-20" x="244.677734"/>
      <use xlink:href="#DejaVuSans-28" x="276.464844"/>
      <use xlink:href="#DejaVuSans-73" x="315.478516"/>
      <use xlink:href="#DejaVuSans-29" x="367.578125"/>
     </g>
    </g>
   </g>
   <g id="matplotlib.axis_2">
    <g id="ytick_1">
     <g id="line2d_8">
      <defs>
       <path id="m5fafc95d87" d="M 0 0 
L -3.5 0 
" style="stroke: #000000; stroke-width: 0.8"/>
      </defs>
      <g>
       <use xlink:href="#m5fafc95d87" x="84.811406" y="312.096369" style="stroke: #000000; stroke-width: 0.8"/>
      </g>
     </g>
     <g id="text_9">
      <!-- −1.00 -->
      <g transform="translate(47.166094 315.895588) scale(0.1 -0.1)">
       <defs>
        <path id="DejaVuSans-2212" d="M 678 2272 
L 4684 2272 
L 4684 1741 
L 678 1741 
L 678 2272 
z
" transform="scale(0.015625)"/>
        <path id="DejaVuSans-2e" d="M 684 794 
L 1344 794 
L 1344 0 
L 684 0 
L 684 794 
z
" transform="scale(0.015625)"/>
       </defs>
       <use xlink:href="#DejaVuSans-2212"/>
       <use xlink:href="#DejaVuSans-31" x="83.789062"/>
       <use xlink:href="#DejaVuSans-2e" x="147.412109"/>
       <use xlink:href="#DejaVuSans-30" x="179.199219"/>
       <use xlink:href="#DejaVuSans-30" x="242.822266"/>
      </g>
     </g>
    </g>
    <g id="ytick_2">
     <g id="line2d_9">
      <g>
       <use xlink:href="#m5fafc95d87" x="84.811406" y="277.709854" style="stroke: #000000; stroke-width: 0.8"/>
      </g>
     </g>
     <g id="text_10">
      <!-- −0.75 -->
      <g transform="translate(47.166094 281.509073) scale(0.1 -0.1)">
       <defs>
        <path id="DejaVuSans-37" d="M 525 4666 
L 3525 4666 
L 3525 4397 
L 1831 0 
L 1172 0 
L 2766 4134 
L 525 4134 
L 525 4666 
z
" transform="scale(0.015625)"/>
       </defs>
       <use xlink:href="#DejaVuSans-2212"/>
       <use xlink:href="#DejaVuSans-30" x="83.789062"/>
       <use xlink:href="#DejaVuSans-2e" x="147.412109"/>
       <use xlink:href="#DejaVuSans-37" x="179.199219"/>
       <use xlink:href="#DejaVuSans-35" x="242.822266"/>
      </g>
     </g>
    </g>
    <g id="ytick_3">
     <g id="line2d_10">
      <g>
       <use xlink:href="#m5fafc95d87" x="84.811406" y="243.323339" style="stroke: #000000; stroke-width: 0.8"/>
      </g>
     </g>
     <g id="text_11">
      <!-- −0.50 -->
      <g transform="translate(47.166094 247.122558) scale(0.1 -0.1)">
       <use xlink:href="#DejaVuSans-2212"/>
       <use xlink:href="#DejaVuSans-30" x="83.789062"/>
       <use xlink:href="#DejaVuSans-2e" x="147.412109"/>
       <use xlink:href="#DejaVuSans-35" x="179.199219"/>
       <use xlink:href="#DejaVuSans-30" x="242.822266"/>
      </g>
     </g>
    </g>
    <g id="ytick_4">
     <g id="line2d_11">
      <g>
       <use xlink:href="#m5fafc95d87" x="84.811406" y="208.936824" style="stroke: #000000; stroke-width: 0.8"/>
      </g>
     </g>
     <g id="text_12">
      <!-- −0.25 -->
      <g transform="translate(47.166094 212.736042) scale(0.1 -0.1)">
       <use xlink:href="#DejaVuSans-2212"/>
       <use xlink:href="#DejaVuSans-30" x="83.789062"/>
       <use xlink:href="#DejaVuSans-2e" x="147.412109"/>
       <use xlink:href="#DejaVuSans-32" x="179.199219"/>
       <use xlink:href="#DejaVuSans-35" x="242.822266"/>
      </g>
     </g>
    </g>
    <g id="ytick_5">
     <g id="line2d_12">
      <g>
       <use xlink:href="#m5fafc95d87" x="84.811406" y="174.550309" style="stroke: #000000; stroke-width: 0.8"/>
      </g>
     </g>
     <g id="text_13">
      <!-- 0.00 -->
      <g transform="translate(55.545781 178.349527) scale(0.1 -0.1)">
       <use xlink:href="#DejaVuSans-30"/>
       <use xlink:href="#DejaVuSans-2e" x="63.623047"/>
       <use xlink:href="#DejaVuSans-30" x="95.410156"/>
       <use xlink:href="#DejaVuSans-30" x="159.033203"/>
      </g>
     </g>
    </g>
    <g id="ytick_6">
     <g id="line2d_13">
      <g>
       <use xlink:href="#m5fafc95d87" x="84.811406" y="140.163793" style="stroke: #000000; stroke-width: 0.8"/>
      </g>
     </g>
     <g id="text_14">
      <!-- 0.25 -->
      <g transform="translate(55.545781 143.963012) scale(0.1 -0.1)">
       <use xlink:href="#DejaVuSans-30"/>
       <use xlink:href="#DejaVuSans-2e" x="63.623047"/>
       <use xlink:href="#DejaVuSans-32" x="95.410156"/>
       <use xlink:href="#DejaVuSans-35" x="159.033203"/>
      </g>
     </g>
    </g>
    <g id="ytick_7">
     <g id="line2d_14">
      <g>
       <use xlink:href="#m5fafc95d87" x="84.811406" y="105.777278" style="stroke: #000000; stroke-width: 0.8"/>
      </g>
     </g>
     <g id="text_15">
      <!-- 0.50 -->
      <g transform="translate(55.545781 109.576497) scale(0.1 -0.1)">
       <use xlink:href="#DejaVuSans-30"/>
       <use xlink:href="#DejaVuSans-2e" x="63.623047"/>
       <use xlink:href="#DejaVuSans-35" x="95.410156"/>
       <use xlink:href="#DejaVuSans-30" x="159.033203"/>
      </g>
     </g>
    </g>
    <g id="ytick_8">
     <g id="line2d_15">
      <g>
       <use xlink:href="#m5fafc95d87" x="84.811406" y="71.390763" style="stroke: #000000; stroke-width: 0.8"/>
      </g>
     </g>
     <g id="text_16">
      <!-- 0.75 -->
      <g transform="translate(55.545781 75.189982) scale(0.1 -0.1)">
       <use xlink:href="#DejaVuSans-30"/>
       <use xlink:href="#DejaVuSans-2e" x="63.623047"/>
       <use xlink:href="#DejaVuSans-37" x="95.410156"/>
       <use xlink:href="#DejaVuSans-35" x="159.033203"/>
      </g>
     </g>
    </g>
    <g id="ytick_9">
     <g id="line2d_16">
      <g>
       <use xlink:href="#m5fafc95d87" x="84.811406" y="37.004248" style="stroke: #000000; stroke-width: 0.8"/>
      </g>
     </g>
     <g id="text_17">
      <!-- 1.00 -->
      <g transform="translate(55.545781 40.803467) scale(0.1 -0.1)">
       <use xlink:href="#DejaVuSans-31"/>
       <use xlink:href="#DejaVuSans-2e" x="63.623047"/>
       <use xlink:href="#DejaVuSans-30" x="95.410156"/>
       <use xlink:href="#DejaVuSans-30" x="159.033203"/>
      </g>
     </g>
    </g>
    <g id="text_18">
     <!-- Normalised motion -->
     <g transform="translate(41.086406 209.892698) rotate(-90) scale(0.1 -0.1)">
      <defs>
       <path id="DejaVuSans-4e" d="M 628 4666 
L 1478 4666 
L 3547 763 
L 3547 4666 
L 4159 4666 
L 4159 0 
L 3309 0 
L 1241 3903 
L 1241 0 
L 628 0 
L 628 4666 
z
" transform="scale(0.015625)"/>
       <path id="DejaVuSans-6f" d="M 1959 3097 
Q 1497 3097 1228 2736 
Q 959 2375 959 1747 
Q 959 1119 1226 758 
Q 1494 397 1959 397 
Q 2419 397 2687 759 
Q 2956 1122 2956 1747 
Q 2956 2369 2687 2733 
Q 2419 3097 1959 3097 
z
M 1959 3584 
Q 2709 3584 3137 3096 
Q 3566 2609 3566 1747 
Q 3566 888 3137 398 
Q 2709 -91 1959 -91 
Q 1206 -91 779 398 
Q 353 888 353 1747 
Q 353 2609 779 3096 
Q 1206 3584 1959 3584 
z
" transform="scale(0.015625)"/>
       <path id="DejaVuSans-72" d="M 2631 2963 
Q 2534 3019 2420 3045 
Q 2306 3072 2169 3072 
Q 1681 3072 1420 2755 
Q 1159 2438 1159 1844 
L 1159 0 
L 581 0 
L 581 3500 
L 1159 3500 
L 1159 2956 
Q 1341 3275 1631 3429 
Q 1922 3584 2338 3584 
Q 2397 3584 2469 3576 
Q 2541 3569 2628 3553 
L 2631 2963 
z
" transform="scale(0.015625)"/>
       <path id="DejaVuSans-61" d="M 2194 1759 
Q 1497 1759 1228 1600 
Q 959 1441 959 1056 
Q 959 750 1161 570 
Q 1363 391 1709 391 
Q 2188 391 2477 730 
Q 2766 1069 2766 1631 
L 2766 1759 
L 2194 1759 
z
M 3341 1997 
L 3341 0 
L 2766 0 
L 2766 531 
Q 2569 213 2275 61 
Q 1981 -91 1556 -91 
Q 1019 -91 701 211 
Q 384 513 384 1019 
Q 384 1609 779 1909 
Q 1175 2209 1959 2209 
L 2766 2209 
L 2766 2266 
Q 2766 2663 2505 2880 
Q 2244 3097 1772 3097 
Q 1472 3097 1187 3025 
Q 903 2953 641 2809 
L 641 3341 
Q 956 3463 1253 3523 
Q 1550 3584 1831 3584 
Q 2591 3584 2966 3190 
Q 3341 2797 3341 1997 
z
" transform="scale(0.015625)"/>
       <path id="DejaVuSans-6c" d="M 603 4863 
L 1178 4863 
L 1178 0 
L 603 0 
L 603 4863 
z
" transform="scale(0.015625)"/>
       <path id="DejaVuSans-64" d="M 2906 2969 
L 2906 4863 
L 3481 4863 
L 3481 0 
L 2906 0 
L 2906 525 
Q 2725 213 2448 61 
Q 2172 -91 1784 -91 
Q 1150 -91 751 415 
Q 353 922 353 1747 
Q 353 2572 751 3078 
Q 1150 3584 1784 3584 
Q 2172 3584 2448 3432 
Q 2725 3281 2906 2969 
z
M 947 1747 
Q 947 1113 1208 752 
Q 1469 391 1925 391 
Q 2381 391 2643 752 
Q 2906 1113 2906 1747 
Q 2906 2381 2643 2742 
Q 2381 3103 1925 3103 
Q 1469 3103 1208 2742 
Q 947 2381 947 1747 
z
" transform="scale(0.015625)"/>
       <path id="DejaVuSans-74" d="M 1172 4494 
L 1172 3500 
L 2356 3500 
L 2356 3053 
L 1172 3053 
L 1172 1153 
Q 1172 725 1289 603 
Q 1406 481 1766 481 
L 2356 481 
L 2356 0 
L 1766 0 
Q 1100 0 847 248 
Q 594 497 594 1153 
L 594 3053 
L 172 3053 
L 172 3500 
L 594 3500 
L 594 4494 
L 1172 4494 
z
" transform="scale(0.015625)"/>
       <path id="DejaVuSans-6e" d="M 3513 2113 
L 3513 0 
L 2938 0 
L 2938 2094 
Q 2938 2591 2744 2837 
Q 2550 3084 2163 3084 
Q 1697 3084 1428 2787 
Q 1159 2491 1159 1978 
L 1159 0 
L 581 0 
L 581 3500 
L 1159 3500 
L 1159 2956 
Q 1366 3272 1645 3428 
Q 1925 3584 2291 3584 
Q 2894 3584 3203 3211 
Q 3513 2838 3513 2113 
z
" transform="scale(0.015625)"/>
      </defs>
      <use xlink:href="#DejaVuSans-4e"/>
      <use xlink:href="#DejaVuSans-6f" x="74.804688"/>
      <use xlink:href="#DejaVuSans-72" x="135.986328"/>
      <use xlink:href="#DejaVuSans-6d" x="175.349609"/>
      <use xlink:href="#DejaVuSans-61" x="272.761719"/>
      <use xlink:href="#DejaVuSans-6c" x="334.041016"/>
      <use xlink:href="#DejaVuSans-69" x="361.824219"/>
      <use xlink:href="#DejaVuSans-73" x="389.607422"/>
      <use xlink:href="#DejaVuSans-65" x="441.707031"/>
      <use xlink:href="#DejaVuSans-64" x="503.230469"/>
      <use xlink:href="#DejaVuSans-20" x="566.707031"/>
      <use xlink:href="#DejaVuSans-6d" x="598.494141"/>
      <use xlink:href="#DejaVuSans-6f" x="695.90625"/>
      <use xlink:href="#DejaVuSans-74" x="757.087891"/>
      <use xlink:href="#DejaVuSans-69" x="796.296875"/>
      <use xlink:href="#DejaVuSans-6f" x="824.080078"/>
      <use xlink:href="#DejaVuSans-6e" x="885.261719"/>
     </g>
    </g>
   </g>
   <g id="line2d_17">
    <path d="M 99.358507 194.068821 
L 101.02752 182.734743 
L 102.696532 203.059518 
L 104.365545 216.040924 
L 106.034558 264.996719 
L 107.703571 273.418971 
L 109.372584 289.973455 
L 111.041596 293.801751 
L 112.710609 301.690363 
L 114.379622 307.096382 
L 116.048635 295.866711 
L 117.717648 290.031459 
L 119.386661 307.954848 
L 121.055673 299.84582 
L 122.724686 298.198492 
L 124.393699 305.947893 
L 126.062712 290.773917 
L 127.731725 292.502451 
L 129.400737 296.029124 
L 131.06975 291.469971 
L 132.738763 304.172955 
L 134.407776 287.896894 
L 136.076789 285.367898 
L 137.745801 257.189314 
L 139.414814 232.258981 
L 141.083827 227.08498 
L 142.75284 194.335642 
L 144.421853 163.906484 
L 146.090865 165.14778 
L 147.759878 163.790475 
L 149.428891 142.340412 
L 151.097904 152.259181 
L 152.766917 163.500452 
L 154.435929 156.365899 
L 156.104942 161.354286 
L 157.773955 162.804398 
L 159.442968 163.001613 
L 161.111981 168.860068 
L 162.780994 164.846156 
L 164.450006 167.293946 
L 166.119019 164.532932 
L 167.788032 174.358894 
L 169.457045 170.344983 
L 172.79507 146.713951 
L 174.464083 149.822992 
L 176.133096 140.983107 
L 177.802109 136.389151 
L 179.471122 125.820732 
L 181.140134 91.876501 
L 182.809147 79.730359 
L 184.47816 59.985629 
L 186.147173 58.431109 
L 187.816186 45.229285 
L 189.485198 57.781458 
L 191.154211 42.143446 
L 192.823224 45.043671 
L 194.492237 44.38242 
L 196.16125 51.284955 
L 197.830263 52.665462 
L 199.499275 48.570344 
L 201.168288 41.667809 
L 202.837301 57.305821 
L 204.506314 41.238576 
L 206.175327 41.134168 
L 207.844339 48.837165 
L 209.513352 46.609792 
L 211.182365 58.871943 
L 212.851378 50.356883 
L 214.520391 80.159593 
L 216.189403 90.658406 
L 217.858416 92.839375 
L 219.527429 100.020332 
L 221.196442 129.602625 
L 222.865455 147.398404 
L 224.534467 168.268422 
L 226.20348 193.720794 
L 227.872493 197.641898 
L 229.541506 213.755547 
L 231.210519 219.486391 
L 232.879532 210.669708 
L 234.548544 212.583856 
L 236.217557 212.235829 
L 237.88657 215.460879 
L 239.555583 213.801951 
L 241.224596 214.521207 
L 244.562621 210.205672 
L 246.231634 205.066474 
L 247.900647 201.5282 
L 249.56966 195.797355 
L 251.238672 207.618672 
L 252.907685 202.989913 
L 254.576698 206.771806 
L 256.245711 197.804311 
L 257.914724 195.34492 
L 259.583736 197.119858 
L 261.252749 227.386604 
L 262.921762 232.525802 
L 264.590775 262.595333 
L 266.259788 288.50014 
L 267.9288 296.052326 
L 269.597813 292.88528 
L 271.266826 312.096369 
L 272.935839 308.778512 
L 274.604852 303.21008 
L 276.273865 300.62308 
L 277.942877 302.096394 
L 279.61189 301.481546 
L 281.280903 297.92007 
L 282.949916 290.913127 
L 284.618929 306.411929 
L 286.287941 290.182271 
L 287.956954 293.824953 
L 289.625967 295.634693 
L 291.29498 294.95024 
L 292.963993 287.85049 
L 294.633005 273.813402 
L 296.302018 255.170757 
L 297.971031 230.252026 
L 299.640044 209.556022 
L 302.978069 152.665212 
L 304.647082 167.108332 
L 306.316095 163.767273 
L 307.985108 159.938976 
L 309.654121 155.577038 
L 311.323134 159.254523 
L 312.992146 167.943597 
L 314.661159 167.050327 
L 316.330172 167.154735 
L 317.999185 165.4146 
L 319.668198 168.291623 
L 321.33721 174.358894 
L 323.006223 173.233607 
L 324.675236 171.609481 
L 326.344249 164.126901 
L 328.013262 153.732495 
L 331.351287 159.335729 
L 333.0203 142.015587 
L 334.689313 136.586366 
L 336.358326 119.73026 
L 338.027338 94.486703 
L 339.696351 84.962365 
L 341.365364 53.67474 
L 343.034377 61.331333 
L 344.70339 50.217672 
L 346.372403 52.955484 
L 348.041415 44.463626 
L 349.710428 50.902125 
L 351.379441 52.665462 
L 353.048454 46.992622 
L 354.717467 51.853399 
L 356.386479 56.099328 
L 358.055492 61.308132 
L 359.724505 54.765225 
L 361.393518 58.802337 
L 363.062531 55.136453 
L 364.731543 55.066848 
L 366.400556 48.013501 
L 368.069569 54.974041 
L 369.738582 47.189837 
L 371.407595 63.837128 
L 373.076607 92.421743 
L 374.74562 111.60963 
L 376.414633 92.653761 
L 378.083646 112.64211 
L 381.421671 166.400677 
L 383.090684 163.419246 
L 384.759697 185.240537 
L 386.42871 211.516574 
L 388.097723 208.604748 
L 389.766736 229.289151 
L 391.435748 215.658095 
L 393.104761 211.690587 
L 394.773774 212.549054 
L 396.442787 208.75556 
L 398.1118 206.620994 
L 399.780812 207.433057 
L 401.449825 212.317036 
L 403.118838 209.556022 
L 404.787851 205.634918 
L 406.456864 215.437678 
L 408.125876 206.853012 
L 409.794889 194.672068 
L 411.463902 203.372742 
L 413.132915 196.214988 
L 414.801928 195.98297 
L 416.47094 190.634955 
L 419.808966 235.518834 
L 423.146992 286.319171 
L 424.816005 281.423592 
L 426.485017 298.604523 
L 428.15403 292.88528 
L 429.823043 300.576676 
L 431.492056 304.915413 
L 433.161069 293.39572 
L 434.830081 298.3029 
L 436.499094 292.688065 
L 438.168107 298.349304 
L 439.83712 299.126564 
L 441.506133 289.927051 
L 443.175145 292.247231 
L 444.844158 287.746082 
L 446.513171 290.797118 
L 448.182184 287.838889 
L 449.851197 272.038464 
L 451.520209 275.59994 
L 453.189222 264.022243 
L 454.858235 243.627862 
L 456.527248 197.259069 
L 458.196261 183.570008 
L 459.865274 165.27539 
L 461.534286 166.528287 
L 463.203299 174.080472 
L 464.872312 171.563077 
L 466.541325 153.349665 
L 468.210338 171.21505 
L 469.87935 170.762615 
L 471.548363 174.799728 
L 474.886389 181.307832 
L 476.555402 174.764925 
L 478.224414 176.006221 
L 481.56244 164.579336 
L 483.231453 164.347318 
L 484.900466 165.704623 
L 486.569478 165.588614 
L 488.238491 153.082845 
L 489.907504 159.416936 
L 491.576517 136.458756 
L 493.24553 131.679186 
L 494.914542 99.069058 
L 496.583555 85.229186 
L 498.252568 70.032008 
L 499.921581 50.043659 
L 501.590594 59.892822 
L 503.259607 37.004248 
L 504.928619 46.96942 
L 506.597632 46.052949 
L 508.266645 50.368484 
L 509.935658 50.786116 
L 511.604671 63.34989 
L 513.273683 52.537852 
L 514.942696 61.02971 
L 516.611709 62.584231 
L 518.280722 63.512302 
L 519.949735 54.626014 
L 521.618747 59.289575 
L 523.28776 54.405597 
L 524.956773 53.825552 
L 526.625786 50.70491 
L 528.294799 73.048242 
L 529.963811 93.442622 
L 531.632824 102.166498 
L 533.301837 88.245419 
L 534.97085 120.368309 
L 536.639863 138.419308 
L 538.308876 153.709293 
L 539.977888 170.95983 
L 541.646901 181.307832 
L 543.315914 206.319371 
L 544.984927 213.384318 
L 546.65394 210.936529 
L 548.322952 202.839101 
L 549.991965 197.595495 
L 551.660978 206.110555 
L 553.329991 204.579236 
L 554.999004 207.931896 
L 556.668016 205.507308 
L 558.337029 199.393634 
L 560.006042 212.10822 
L 561.675055 193.987615 
L 563.344068 197.096656 
L 565.01308 199.196419 
L 566.682093 200.008482 
L 568.351106 197.096656 
L 571.689132 197.003849 
L 573.358145 188.314775 
L 575.027157 211.052538 
L 576.69617 240.008382 
L 578.365183 273.326164 
L 578.365183 273.326164 
" clip-path="url(#pf5d6f39475)" style="fill: none; stroke: #ff0000; stroke-width: 1.5; stroke-linecap: square"/>
   </g>
   <g id="line2d_18">
    <path d="M 99.358507 180.666388 
L 101.02752 186.403658 
L 102.696532 202.122689 
L 104.365545 221.305391 
L 106.034558 238.819164 
L 111.041596 298.390956 
L 112.710609 309.680903 
L 114.379622 311.06433 
L 116.048635 310.962467 
L 132.738763 311.313078 
L 134.407776 309.780569 
L 136.076789 302.434696 
L 137.745801 286.854016 
L 139.414814 268.903934 
L 146.090865 202.484142 
L 147.759878 193.45905 
L 149.428891 192.281884 
L 151.097904 192.463803 
L 167.788032 192.138227 
L 169.457045 192.758056 
L 171.126058 189.879263 
L 172.79507 179.180492 
L 174.464083 165.057818 
L 179.471122 125.481813 
L 182.809147 98.047418 
L 186.147173 71.577173 
L 189.485198 46.794888 
L 191.154211 39.592996 
L 192.823224 37.837131 
L 194.492237 37.885098 
L 199.499275 37.592141 
L 211.182365 37.195807 
L 212.851378 39.617172 
L 214.520391 44.516838 
L 216.189403 53.071434 
L 226.20348 121.691342 
L 232.879532 170.843291 
L 234.548544 177.570453 
L 236.217557 178.644115 
L 239.555583 178.624441 
L 251.238672 178.875894 
L 256.245711 178.953612 
L 257.914724 181.481279 
L 259.583736 193.073665 
L 267.9288 291.197357 
L 269.597813 306.741894 
L 271.266826 311.318106 
L 272.935839 311.132082 
L 289.625967 311.60021 
L 291.29498 311.295215 
L 292.963993 306.149249 
L 294.633005 292.929359 
L 296.302018 274.834402 
L 302.978069 207.252836 
L 304.647082 195.437389 
L 306.316095 192.076847 
L 307.985108 192.301622 
L 324.675236 191.998369 
L 326.344249 192.20537 
L 328.013262 191.412029 
L 329.682274 183.043168 
L 336.358326 129.547824 
L 339.696351 102.255501 
L 343.034377 75.488069 
L 346.372403 50.175804 
L 348.041415 40.982442 
L 349.710428 37.845438 
L 353.048454 37.771598 
L 364.731543 37.28051 
L 369.738582 37.138483 
L 371.407595 41.002543 
L 373.076607 46.971077 
L 374.74562 56.391778 
L 376.414633 68.305988 
L 379.752659 90.410933 
L 384.759697 126.017531 
L 388.097723 150.701423 
L 389.766736 163.713839 
L 391.435748 173.951865 
L 393.104761 178.402917 
L 394.773774 178.65178 
L 398.1118 178.63837 
L 409.794889 178.882265 
L 413.132915 178.904138 
L 414.801928 179.995797 
L 416.47094 188.994744 
L 418.139953 207.233141 
L 421.477979 245.765928 
L 426.485017 303.374743 
L 428.15403 311.565172 
L 429.823043 311.762279 
L 433.161069 311.75131 
L 448.182184 312.096369 
L 449.851197 308.982845 
L 451.520209 298.987857 
L 459.865274 213.001108 
L 461.534286 198.680184 
L 463.203299 192.050801 
L 464.872312 191.854118 
L 468.210338 191.90381 
L 483.231453 191.631465 
L 484.900466 191.930464 
L 486.569478 186.17384 
L 488.238491 173.527401 
L 489.907504 159.610345 
L 493.24553 133.549378 
L 496.583555 106.740052 
L 499.921581 79.645693 
L 503.259607 54.18335 
L 504.928619 43.065398 
L 506.597632 38.130511 
L 508.266645 37.684723 
L 514.942696 37.405359 
L 521.618747 37.147883 
L 526.625786 37.004248 
L 528.294799 40.802066 
L 529.963811 46.60165 
L 531.632824 56.127242 
L 533.301837 68.094069 
L 536.639863 89.819735 
L 539.977888 113.532814 
L 544.984927 150.220594 
L 546.65394 163.271153 
L 548.322952 173.700428 
L 549.991965 178.435595 
L 551.660978 178.70362 
L 554.999004 178.70294 
L 568.351106 178.956723 
L 570.020119 178.963993 
L 571.689132 179.379352 
L 573.358145 184.651802 
L 575.027157 200.995959 
L 578.365183 239.714081 
L 578.365183 239.714081 
" clip-path="url(#pf5d6f39475)" style="fill: none; stroke-dasharray: 5.55,2.4; stroke-dashoffset: 0; stroke: #ff0000; stroke-width: 1.5"/>
   </g>
   <g id="line2d_19">
    <path d="M 99.358507 64.305057 
L 102.933183 69.765219 
L 106.50786 63.033798 
L 110.082537 66.347408 
L 113.657214 44.069114 
L 117.23189 66.347408 
L 120.806567 38.879876 
L 124.381244 71.703368 
L 127.95592 42.381049 
L 131.530597 55.343723 
L 135.105274 38.942397 
L 138.67995 58.803215 
L 142.254627 49.862721 
L 145.829304 60.887246 
L 149.40398 54.447589 
L 152.978657 63.513125 
L 156.553334 47.341043 
L 160.12801 71.578326 
L 163.702687 37.004248 
L 167.277364 55.343723 
L 170.852041 38.796515 
L 174.426717 159.253519 
L 178.001394 179.447782 
L 181.576071 196.620199 
L 185.150747 195.3281 
L 188.725424 209.666235 
L 192.300101 207.33212 
L 195.874777 207.227918 
L 199.449454 270.895072 
L 203.024131 307.615702 
L 206.598807 268.373394 
L 210.173484 291.422779 
L 213.748161 269.311208 
L 217.322837 285.129005 
L 220.897514 268.852721 
L 224.472191 277.168006 
L 228.046868 263.496761 
L 231.621544 277.980778 
L 235.196221 269.144486 
L 238.770898 272.520616 
L 242.345574 277.168006 
L 245.920251 310.554186 
L 249.494928 270.74919 
L 253.069604 288.171691 
L 256.644281 259.703824 
L 260.218958 271.728684 
L 263.793634 262.225502 
L 267.368311 274.146161 
L 270.942988 266.872892 
L 274.517664 275.688344 
L 278.092341 258.786851 
L 281.667018 270.74919 
L 285.241695 289.838916 
L 288.816371 311.637882 
L 292.391048 275.917587 
L 295.965725 299.633862 
L 299.540401 279.356239 
L 303.115078 291.235217 
L 306.689755 275.625823 
L 310.264431 279.147836 
L 313.839108 267.831546 
L 317.413785 279.481281 
L 320.988461 277.730694 
L 324.563138 279.252037 
L 328.137815 282.044639 
L 331.712491 309.824775 
L 335.287168 276.230192 
L 338.861845 286.12934 
L 342.436522 144.060932 
L 346.011198 162.504608 
L 349.585875 136.787663 
L 353.160552 145.91572 
L 356.735228 124.950365 
L 360.309905 140.434717 
L 363.884582 126.367507 
L 367.459258 144.686141 
L 371.033935 66.430769 
L 374.608612 105.985681 
L 378.183288 74.225046 
L 381.757965 93.418973 
L 385.332642 65.659677 
L 388.907318 82.51949 
L 392.481995 65.20119 
L 396.056672 76.434119 
L 399.631349 58.261366 
L 403.206025 76.204875 
L 406.780702 73.057988 
L 410.355379 72.807904 
L 413.930055 75.433784 
L 417.504732 100.754763 
L 421.079409 55.302042 
L 424.654085 77.226051 
L 428.228762 51.342383 
L 431.803439 70.036143 
L 435.378115 57.740359 
L 438.952792 67.20186 
L 442.527469 45.79886 
L 446.102145 63.304722 
L 449.676822 54.155825 
L 453.251499 67.82707 
L 456.826176 68.556481 
L 460.400852 146.103282 
L 463.975529 164.734522 
L 467.550206 223.108236 
L 471.124882 230.631589 
L 474.699559 243.906868 
L 478.274236 231.235958 
L 481.848912 241.739475 
L 485.423589 235.737465 
L 488.998266 246.699469 
L 492.572942 236.821161 
L 496.147619 247.533082 
L 499.722296 275.980108 
L 503.296972 294.319583 
L 506.871649 262.934073 
L 510.446326 284.8164 
L 514.021003 269.165326 
L 517.595679 276.396914 
L 521.170356 262.850711 
L 524.745033 280.064809 
L 528.319709 257.890717 
L 531.894386 267.560622 
L 535.469063 255.306518 
L 539.043739 260.704159 
L 542.618416 278.293383 
L 546.193093 312.096369 
L 549.767769 270.874232 
L 553.342446 291.214376 
L 556.917123 262.558947 
L 560.491799 275.604982 
L 564.066476 259.995589 
L 567.641153 271.853726 
L 571.21583 258.995254 
L 574.790506 272.958263 
L 578.365183 265.872557 
L 578.365183 265.872557 
" clip-path="url(#pf5d6f39475)" style="fill: none; stroke: #0000ff; stroke-width: 1.5; stroke-linecap: square"/>
   </g>
   <g id="line2d_20">
    <path d="M 99.358507 42.393026 
L 102.933183 42.37038 
L 106.50786 41.827584 
L 113.657214 41.269024 
L 120.806567 40.33224 
L 124.381244 40.191238 
L 131.530597 39.577787 
L 152.978657 38.367901 
L 156.553334 38.278426 
L 167.277364 37.760929 
L 192.300101 37.004248 
L 199.449454 37.036588 
L 203.024131 42.069073 
L 206.598807 153.177591 
L 210.173484 257.816146 
L 213.748161 295.397895 
L 217.322837 295.866097 
L 224.472191 297.130078 
L 228.046868 298.269512 
L 235.196221 300.030819 
L 238.770898 300.729264 
L 249.494928 302.385965 
L 253.069604 303.038827 
L 260.218958 304.010509 
L 270.942988 305.2152 
L 274.517664 305.492306 
L 278.092341 305.632735 
L 281.667018 306.031169 
L 295.965725 307.139524 
L 299.540401 307.653105 
L 303.115078 307.809807 
L 306.689755 308.171822 
L 317.413785 308.840518 
L 320.988461 309.348394 
L 328.137815 309.963066 
L 360.309905 311.659785 
L 363.884582 311.707348 
L 367.459258 312.096369 
L 371.033935 260.592253 
L 374.608612 135.683052 
L 378.183288 60.620471 
L 381.757965 62.65656 
L 385.332642 61.668982 
L 388.907318 60.820759 
L 392.481995 58.938493 
L 396.056672 57.818166 
L 403.206025 55.940019 
L 410.355379 54.707452 
L 413.930055 53.97501 
L 421.079409 52.847951 
L 424.654085 52.617698 
L 431.803439 51.493766 
L 435.378115 51.049845 
L 438.952792 50.835543 
L 449.676822 49.761121 
L 456.826176 49.091288 
L 460.400852 49.037769 
L 463.975529 48.572153 
L 467.550206 48.65649 
L 471.124882 48.286947 
L 485.423589 47.484647 
L 488.998266 47.335619 
L 492.572942 55.216179 
L 496.147619 170.578761 
L 499.722296 293.178177 
L 503.296972 301.776071 
L 506.871649 302.03685 
L 514.021003 303.151736 
L 517.595679 304.206318 
L 528.319709 306.334223 
L 531.894386 306.632806 
L 535.469063 307.275716 
L 546.193093 308.695162 
L 549.767769 309.332362 
L 571.21583 311.622819 
L 574.790506 311.746338 
L 578.365183 312.09348 
L 578.365183 312.09348 
" clip-path="url(#pf5d6f39475)" style="fill: none; stroke-dasharray: 5.55,2.4; stroke-dashoffset: 0; stroke: #0000ff; stroke-width: 1.5"/>
   </g>
   <g id="patch_3">
    <path d="M 84.811406 313.761333 
L 84.811406 11.16 
" style="fill: none; stroke: #000000; stroke-width: 0.8; stroke-linejoin: miter; stroke-linecap: square"/>
   </g>
   <g id="patch_4">
    <path d="M 611.71875 313.761333 
L 611.71875 11.16 
" style="fill: none; stroke: #000000; stroke-width: 0.8; stroke-linejoin: miter; stroke-linecap: square"/>
   </g>
   <g id="patch_5">
    <path d="M 84.811406 313.761333 
L 611.71875 313.761333 
" style="fill: none; stroke: #000000; stroke-width: 0.8; stroke-linejoin: miter; stroke-linecap: square"/>
   </g>
   <g id="patch_6">
    <path d="M 84.811406 11.16 
L 611.71875 11.16 
" style="fill: none; stroke: #000000; stroke-width: 0.8; stroke-linejoin: miter; stroke-linecap: square"/>
   </g>
   <g id="legend_1">
    <g id="patch_7">
     <path d="M 494.042188 77.8725 
L 604.71875 77.8725 
Q 606.71875 77.8725 606.71875 75.8725 
L 606.71875 18.16 
Q 606.71875 16.16 604.71875 16.16 
L 494.042188 16.16 
Q 492.042188 16.16 492.042188 18.16 
L 492.042188 75.8725 
Q 492.042188 77.8725 494.042188 77.8725 
z
" style="fill: #ffffff; opacity: 0.8; stroke: #cccccc; stroke-linejoin: miter"/>
    </g>
    <g id="line2d_21">
     <path d="M 496.042188 24.258438 
L 506.042188 24.258438 
L 516.042187 24.258438 
" style="fill: none; stroke: #ff0000; stroke-width: 1.5; stroke-linecap: square"/>
    </g>
    <g id="text_19">
     <!-- Ry prediction -->
     <g transform="translate(524.042187 27.758438) scale(0.1 -0.1)">
      <defs>
       <path id="DejaVuSans-52" d="M 2841 2188 
Q 3044 2119 3236 1894 
Q 3428 1669 3622 1275 
L 4263 0 
L 3584 0 
L 2988 1197 
Q 2756 1666 2539 1819 
Q 2322 1972 1947 1972 
L 1259 1972 
L 1259 0 
L 628 0 
L 628 4666 
L 2053 4666 
Q 2853 4666 3247 4331 
Q 3641 3997 3641 3322 
Q 3641 2881 3436 2590 
Q 3231 2300 2841 2188 
z
M 1259 4147 
L 1259 2491 
L 2053 2491 
Q 2509 2491 2742 2702 
Q 2975 2913 2975 3322 
Q 2975 3731 2742 3939 
Q 2509 4147 2053 4147 
L 1259 4147 
z
" transform="scale(0.015625)"/>
       <path id="DejaVuSans-79" d="M 2059 -325 
Q 1816 -950 1584 -1140 
Q 1353 -1331 966 -1331 
L 506 -1331 
L 506 -850 
L 844 -850 
Q 1081 -850 1212 -737 
Q 1344 -625 1503 -206 
L 1606 56 
L 191 3500 
L 800 3500 
L 1894 763 
L 2988 3500 
L 3597 3500 
L 2059 -325 
z
" transform="scale(0.015625)"/>
       <path id="DejaVuSans-70" d="M 1159 525 
L 1159 -1331 
L 581 -1331 
L 581 3500 
L 1159 3500 
L 1159 2969 
Q 1341 3281 1617 3432 
Q 1894 3584 2278 3584 
Q 2916 3584 3314 3078 
Q 3713 2572 3713 1747 
Q 3713 922 3314 415 
Q 2916 -91 2278 -91 
Q 1894 -91 1617 61 
Q 1341 213 1159 525 
z
M 3116 1747 
Q 3116 2381 2855 2742 
Q 2594 3103 2138 3103 
Q 1681 3103 1420 2742 
Q 1159 2381 1159 1747 
Q 1159 1113 1420 752 
Q 1681 391 2138 391 
Q 2594 391 2855 752 
Q 3116 1113 3116 1747 
z
" transform="scale(0.015625)"/>
       <path id="DejaVuSans-63" d="M 3122 3366 
L 3122 2828 
Q 2878 2963 2633 3030 
Q 2388 3097 2138 3097 
Q 1578 3097 1268 2742 
Q 959 2388 959 1747 
Q 959 1106 1268 751 
Q 1578 397 2138 397 
Q 2388 397 2633 464 
Q 2878 531 3122 666 
L 3122 134 
Q 2881 22 2623 -34 
Q 2366 -91 2075 -91 
Q 1284 -91 818 406 
Q 353 903 353 1747 
Q 353 2603 823 3093 
Q 1294 3584 2113 3584 
Q 2378 3584 2631 3529 
Q 2884 3475 3122 3366 
z
" transform="scale(0.015625)"/>
      </defs>
      <use xlink:href="#DejaVuSans-52"/>
      <use xlink:href="#DejaVuSans-79" x="63.982422"/>
      <use xlink:href="#DejaVuSans-20" x="123.162109"/>
      <use xlink:href="#DejaVuSans-70" x="154.949219"/>
      <use xlink:href="#DejaVuSans-72" x="218.425781"/>
      <use xlink:href="#DejaVuSans-65" x="257.289062"/>
      <use xlink:href="#DejaVuSans-64" x="318.8125"/>
      <use xlink:href="#DejaVuSans-69" x="382.289062"/>
      <use xlink:href="#DejaVuSans-63" x="410.072266"/>
      <use xlink:href="#DejaVuSans-74" x="465.052734"/>
      <use xlink:href="#DejaVuSans-69" x="504.261719"/>
      <use xlink:href="#DejaVuSans-6f" x="532.044922"/>
      <use xlink:href="#DejaVuSans-6e" x="593.226562"/>
     </g>
    </g>
    <g id="line2d_22">
     <path d="M 496.042188 38.936563 
L 506.042188 38.936563 
L 516.042187 38.936563 
" style="fill: none; stroke-dasharray: 5.55,2.4; stroke-dashoffset: 0; stroke: #ff0000; stroke-width: 1.5"/>
    </g>
    <g id="text_20">
     <!-- Ry ground truth -->
     <g transform="translate(524.042187 42.436563) scale(0.1 -0.1)">
      <defs>
       <path id="DejaVuSans-67" d="M 2906 1791 
Q 2906 2416 2648 2759 
Q 2391 3103 1925 3103 
Q 1463 3103 1205 2759 
Q 947 2416 947 1791 
Q 947 1169 1205 825 
Q 1463 481 1925 481 
Q 2391 481 2648 825 
Q 2906 1169 2906 1791 
z
M 3481 434 
Q 3481 -459 3084 -895 
Q 2688 -1331 1869 -1331 
Q 1566 -1331 1297 -1286 
Q 1028 -1241 775 -1147 
L 775 -588 
Q 1028 -725 1275 -790 
Q 1522 -856 1778 -856 
Q 2344 -856 2625 -561 
Q 2906 -266 2906 331 
L 2906 616 
Q 2728 306 2450 153 
Q 2172 0 1784 0 
Q 1141 0 747 490 
Q 353 981 353 1791 
Q 353 2603 747 3093 
Q 1141 3584 1784 3584 
Q 2172 3584 2450 3431 
Q 2728 3278 2906 2969 
L 2906 3500 
L 3481 3500 
L 3481 434 
z
" transform="scale(0.015625)"/>
       <path id="DejaVuSans-75" d="M 544 1381 
L 544 3500 
L 1119 3500 
L 1119 1403 
Q 1119 906 1312 657 
Q 1506 409 1894 409 
Q 2359 409 2629 706 
Q 2900 1003 2900 1516 
L 2900 3500 
L 3475 3500 
L 3475 0 
L 2900 0 
L 2900 538 
Q 2691 219 2414 64 
Q 2138 -91 1772 -91 
Q 1169 -91 856 284 
Q 544 659 544 1381 
z
M 1991 3584 
L 1991 3584 
z
" transform="scale(0.015625)"/>
       <path id="DejaVuSans-68" d="M 3513 2113 
L 3513 0 
L 2938 0 
L 2938 2094 
Q 2938 2591 2744 2837 
Q 2550 3084 2163 3084 
Q 1697 3084 1428 2787 
Q 1159 2491 1159 1978 
L 1159 0 
L 581 0 
L 581 4863 
L 1159 4863 
L 1159 2956 
Q 1366 3272 1645 3428 
Q 1925 3584 2291 3584 
Q 2894 3584 3203 3211 
Q 3513 2838 3513 2113 
z
" transform="scale(0.015625)"/>
      </defs>
      <use xlink:href="#DejaVuSans-52"/>
      <use xlink:href="#DejaVuSans-79" x="63.982422"/>
      <use xlink:href="#DejaVuSans-20" x="123.162109"/>
      <use xlink:href="#DejaVuSans-67" x="154.949219"/>
      <use xlink:href="#DejaVuSans-72" x="218.425781"/>
      <use xlink:href="#DejaVuSans-6f" x="257.289062"/>
      <use xlink:href="#DejaVuSans-75" x="318.470703"/>
      <use xlink:href="#DejaVuSans-6e" x="381.849609"/>
      <use xlink:href="#DejaVuSans-64" x="445.228516"/>
      <use xlink:href="#DejaVuSans-20" x="508.705078"/>
      <use xlink:href="#DejaVuSans-74" x="540.492188"/>
      <use xlink:href="#DejaVuSans-72" x="579.701172"/>
      <use xlink:href="#DejaVuSans-75" x="620.814453"/>
      <use xlink:href="#DejaVuSans-74" x="684.193359"/>
      <use xlink:href="#DejaVuSans-68" x="723.402344"/>
     </g>
    </g>
    <g id="line2d_23">
     <path d="M 496.042188 53.614688 
L 506.042188 53.614688 
L 516.042187 53.614688 
" style="fill: none; stroke: #0000ff; stroke-width: 1.5; stroke-linecap: square"/>
    </g>
    <g id="text_21">
     <!-- Tz prediction -->
     <g transform="translate(524.042187 57.114688) scale(0.1 -0.1)">
      <defs>
       <path id="DejaVuSans-7a" d="M 353 3500 
L 3084 3500 
L 3084 2975 
L 922 459 
L 3084 459 
L 3084 0 
L 275 0 
L 275 525 
L 2438 3041 
L 353 3041 
L 353 3500 
z
" transform="scale(0.015625)"/>
      </defs>
      <use xlink:href="#DejaVuSans-54"/>
      <use xlink:href="#DejaVuSans-7a" x="61.083984"/>
      <use xlink:href="#DejaVuSans-20" x="113.574219"/>
      <use xlink:href="#DejaVuSans-70" x="145.361328"/>
      <use xlink:href="#DejaVuSans-72" x="208.837891"/>
      <use xlink:href="#DejaVuSans-65" x="247.701172"/>
      <use xlink:href="#DejaVuSans-64" x="309.224609"/>
      <use xlink:href="#DejaVuSans-69" x="372.701172"/>
      <use xlink:href="#DejaVuSans-63" x="400.484375"/>
      <use xlink:href="#DejaVuSans-74" x="455.464844"/>
      <use xlink:href="#DejaVuSans-69" x="494.673828"/>
      <use xlink:href="#DejaVuSans-6f" x="522.457031"/>
      <use xlink:href="#DejaVuSans-6e" x="583.638672"/>
     </g>
    </g>
    <g id="line2d_24">
     <path d="M 496.042188 68.292813 
L 506.042188 68.292813 
L 516.042187 68.292813 
" style="fill: none; stroke-dasharray: 5.55,2.4; stroke-dashoffset: 0; stroke: #0000ff; stroke-width: 1.5"/>
    </g>
    <g id="text_22">
     <!-- Tz ground truth -->
     <g transform="translate(524.042187 71.792813) scale(0.1 -0.1)">
      <use xlink:href="#DejaVuSans-54"/>
      <use xlink:href="#DejaVuSans-7a" x="61.083984"/>
      <use xlink:href="#DejaVuSans-20" x="113.574219"/>
      <use xlink:href="#DejaVuSans-67" x="145.361328"/>
      <use xlink:href="#DejaVuSans-72" x="208.837891"/>
      <use xlink:href="#DejaVuSans-6f" x="247.701172"/>
      <use xlink:href="#DejaVuSans-75" x="308.882812"/>
      <use xlink:href="#DejaVuSans-6e" x="372.261719"/>
      <use xlink:href="#DejaVuSans-64" x="435.640625"/>
      <use xlink:href="#DejaVuSans-20" x="499.117188"/>
      <use xlink:href="#DejaVuSans-74" x="530.904297"/>
      <use xlink:href="#DejaVuSans-72" x="570.113281"/>
      <use xlink:href="#DejaVuSans-75" x="611.226562"/>
      <use xlink:href="#DejaVuSans-74" x="674.605469"/>
      <use xlink:href="#DejaVuSans-68" x="713.814453"/>
     </g>
    </g>
   </g>
  </g>
 </g>
 <defs>
  <clipPath id="pf5d6f39475">
   <rect x="84.811406" y="11.16" width="526.907344" height="302.601333"/>
  </clipPath>
 </defs>
</svg>
