<?xml version="1.0" encoding="utf-8" standalone="no"?>
<!DOCTYPE svg PUBLIC "-//W3C//DTD SVG 1.1//EN"
  "http://www.w3.org/Graphics/SVG/1.1/DTD/svg11.dtd">
<svg xmlns:xlink="http://www.w3.org/1999/xlink" width="782.64pt" height="345.6pt" viewBox="0 0 782.64 345.6" xmlns="http://www.w3.org/2000/svg" version="1.1">
 <metadata>
  <rdf:RDF xmlns:dc="http://purl.org/dc/elements/1.1/" xmlns:cc="http://creativecommons.org/ns#" xmlns:rdf="http://www.w3.org/1999/02/22-rdf-syntax-ns#">
   <cc:Work>
    <dc:type rdf:resource="http://purl.org/dc/dcmitype/StillImage"/>
    <dc:date>2024-03-19T14:43:31.379670</dc:date>
    <dc:format>image/svg+xml</dc:format>
    <dc:creator>
     <cc:Agent>
      <dc:title>Matplotlib v3.7.1, https://matplotlib.org/</dc:title>
     </cc:Agent>
    </dc:creator>
   </cc:Work>
  </rdf:RDF>
 </metadata>
 <defs>
  <style type="text/css">*{stroke-linejoin: round; stroke-linecap: butt}</style>
 </defs>
 <g id="figure_1">
  <g id="patch_1">
   <path d="M 0 345.6 
L 782.64 345.6 
L 782.64 0 
L 0 0 
z
" style="fill: #ffffff"/>
  </g>
  <g id="axes_1">
   <g id="patch_2">
    <path d="M 105.965516 303.64 
L 764.296875 303.64 
L 764.296875 10.8 
L 105.965516 10.8 
z
" style="fill: #ffffff"/>
   </g>
   <g id="matplotlib.axis_1">
    <g id="xtick_1">
     <g id="line2d_1">
      <defs>
       <path id="m731446b138" d="M 0 0 
L 0 3.5 
" style="stroke: #000000; stroke-width: 0.8"/>
      </defs>
      <g>
       <use xlink:href="#m731446b138" x="135.889668" y="303.64" style="stroke: #000000; stroke-width: 0.8"/>
      </g>
     </g>
     <g id="text_1">
      <!-- 0 -->
      <g transform="translate(132.708418 318.238437) scale(0.1 -0.1)">
       <defs>
        <path id="DejaVuSans-30" d="M 2034 4250 
Q 1547 4250 1301 3770 
Q 1056 3291 1056 2328 
Q 1056 1369 1301 889 
Q 1547 409 2034 409 
Q 2525 409 2770 889 
Q 3016 1369 3016 2328 
Q 3016 3291 2770 3770 
Q 2525 4250 2034 4250 
z
M 2034 4750 
Q 2819 4750 3233 4129 
Q 3647 3509 3647 2328 
Q 3647 1150 3233 529 
Q 2819 -91 2034 -91 
Q 1250 -91 836 529 
Q 422 1150 422 2328 
Q 422 3509 836 4129 
Q 1250 4750 2034 4750 
z
" transform="scale(0.015625)"/>
       </defs>
       <use xlink:href="#DejaVuSans-30"/>
      </g>
     </g>
    </g>
    <g id="xtick_2">
     <g id="line2d_2">
      <g>
       <use xlink:href="#m731446b138" x="235.636844" y="303.64" style="stroke: #000000; stroke-width: 0.8"/>
      </g>
     </g>
     <g id="text_2">
      <!-- 5 -->
      <g transform="translate(232.455594 318.238437) scale(0.1 -0.1)">
       <defs>
        <path id="DejaVuSans-35" d="M 691 4666 
L 3169 4666 
L 3169 4134 
L 1269 4134 
L 1269 2991 
Q 1406 3038 1543 3061 
Q 1681 3084 1819 3084 
Q 2600 3084 3056 2656 
Q 3513 2228 3513 1497 
Q 3513 744 3044 326 
Q 2575 -91 1722 -91 
Q 1428 -91 1123 -41 
Q 819 9 494 109 
L 494 744 
Q 775 591 1075 516 
Q 1375 441 1709 441 
Q 2250 441 2565 725 
Q 2881 1009 2881 1497 
Q 2881 1984 2565 2268 
Q 2250 2553 1709 2553 
Q 1456 2553 1204 2497 
Q 953 2441 691 2322 
L 691 4666 
z
" transform="scale(0.015625)"/>
       </defs>
       <use xlink:href="#DejaVuSans-35"/>
      </g>
     </g>
    </g>
    <g id="xtick_3">
     <g id="line2d_3">
      <g>
       <use xlink:href="#m731446b138" x="335.38402" y="303.64" style="stroke: #000000; stroke-width: 0.8"/>
      </g>
     </g>
     <g id="text_3">
      <!-- 10 -->
      <g transform="translate(329.02152 318.238437) scale(0.1 -0.1)">
       <defs>
        <path id="DejaVuSans-31" d="M 794 531 
L 1825 531 
L 1825 4091 
L 703 3866 
L 703 4441 
L 1819 4666 
L 2450 4666 
L 2450 531 
L 3481 531 
L 3481 0 
L 794 0 
L 794 531 
z
" transform="scale(0.015625)"/>
       </defs>
       <use xlink:href="#DejaVuSans-31"/>
       <use xlink:href="#DejaVuSans-30" x="63.623047"/>
      </g>
     </g>
    </g>
    <g id="xtick_4">
     <g id="line2d_4">
      <g>
       <use xlink:href="#m731446b138" x="435.131195" y="303.64" style="stroke: #000000; stroke-width: 0.8"/>
      </g>
     </g>
     <g id="text_4">
      <!-- 15 -->
      <g transform="translate(428.768695 318.238437) scale(0.1 -0.1)">
       <use xlink:href="#DejaVuSans-31"/>
       <use xlink:href="#DejaVuSans-35" x="63.623047"/>
      </g>
     </g>
    </g>
    <g id="xtick_5">
     <g id="line2d_5">
      <g>
       <use xlink:href="#m731446b138" x="534.878371" y="303.64" style="stroke: #000000; stroke-width: 0.8"/>
      </g>
     </g>
     <g id="text_5">
      <!-- 20 -->
      <g transform="translate(528.515871 318.238437) scale(0.1 -0.1)">
       <defs>
        <path id="DejaVuSans-32" d="M 1228 531 
L 3431 531 
L 3431 0 
L 469 0 
L 469 531 
Q 828 903 1448 1529 
Q 2069 2156 2228 2338 
Q 2531 2678 2651 2914 
Q 2772 3150 2772 3378 
Q 2772 3750 2511 3984 
Q 2250 4219 1831 4219 
Q 1534 4219 1204 4116 
Q 875 4013 500 3803 
L 500 4441 
Q 881 4594 1212 4672 
Q 1544 4750 1819 4750 
Q 2544 4750 2975 4387 
Q 3406 4025 3406 3419 
Q 3406 3131 3298 2873 
Q 3191 2616 2906 2266 
Q 2828 2175 2409 1742 
Q 1991 1309 1228 531 
z
" transform="scale(0.015625)"/>
       </defs>
       <use xlink:href="#DejaVuSans-32"/>
       <use xlink:href="#DejaVuSans-30" x="63.623047"/>
      </g>
     </g>
    </g>
    <g id="xtick_6">
     <g id="line2d_6">
      <g>
       <use xlink:href="#m731446b138" x="634.625547" y="303.64" style="stroke: #000000; stroke-width: 0.8"/>
      </g>
     </g>
     <g id="text_6">
      <!-- 25 -->
      <g transform="translate(628.263047 318.238437) scale(0.1 -0.1)">
       <use xlink:href="#DejaVuSans-32"/>
       <use xlink:href="#DejaVuSans-35" x="63.623047"/>
      </g>
     </g>
    </g>
    <g id="xtick_7">
     <g id="line2d_7">
      <g>
       <use xlink:href="#m731446b138" x="734.372722" y="303.64" style="stroke: #000000; stroke-width: 0.8"/>
      </g>
     </g>
     <g id="text_7">
      <!-- 30 -->
      <g transform="translate(728.010222 318.238437) scale(0.1 -0.1)">
       <defs>
        <path id="DejaVuSans-33" d="M 2597 2516 
Q 3050 2419 3304 2112 
Q 3559 1806 3559 1356 
Q 3559 666 3084 287 
Q 2609 -91 1734 -91 
Q 1441 -91 1130 -33 
Q 819 25 488 141 
L 488 750 
Q 750 597 1062 519 
Q 1375 441 1716 441 
Q 2309 441 2620 675 
Q 2931 909 2931 1356 
Q 2931 1769 2642 2001 
Q 2353 2234 1838 2234 
L 1294 2234 
L 1294 2753 
L 1863 2753 
Q 2328 2753 2575 2939 
Q 2822 3125 2822 3475 
Q 2822 3834 2567 4026 
Q 2313 4219 1838 4219 
Q 1578 4219 1281 4162 
Q 984 4106 628 3988 
L 628 4550 
Q 988 4650 1302 4700 
Q 1616 4750 1894 4750 
Q 2613 4750 3031 4423 
Q 3450 4097 3450 3541 
Q 3450 3153 3228 2886 
Q 3006 2619 2597 2516 
z
" transform="scale(0.015625)"/>
       </defs>
       <use xlink:href="#DejaVuSans-33"/>
       <use xlink:href="#DejaVuSans-30" x="63.623047"/>
      </g>
     </g>
    </g>
    <g id="text_8">
     <!-- Time (s) -->
     <g transform="translate(414.802289 331.916562) scale(0.1 -0.1)">
      <defs>
       <path id="DejaVuSans-54" d="M -19 4666 
L 3928 4666 
L 3928 4134 
L 2272 4134 
L 2272 0 
L 1638 0 
L 1638 4134 
L -19 4134 
L -19 4666 
z
" transform="scale(0.015625)"/>
       <path id="DejaVuSans-69" d="M 603 3500 
L 1178 3500 
L 1178 0 
L 603 0 
L 603 3500 
z
M 603 4863 
L 1178 4863 
L 1178 4134 
L 603 4134 
L 603 4863 
z
" transform="scale(0.015625)"/>
       <path id="DejaVuSans-6d" d="M 3328 2828 
Q 3544 3216 3844 3400 
Q 4144 3584 4550 3584 
Q 5097 3584 5394 3201 
Q 5691 2819 5691 2113 
L 5691 0 
L 5113 0 
L 5113 2094 
Q 5113 2597 4934 2840 
Q 4756 3084 4391 3084 
Q 3944 3084 3684 2787 
Q 3425 2491 3425 1978 
L 3425 0 
L 2847 0 
L 2847 2094 
Q 2847 2600 2669 2842 
Q 2491 3084 2119 3084 
Q 1678 3084 1418 2786 
Q 1159 2488 1159 1978 
L 1159 0 
L 581 0 
L 581 3500 
L 1159 3500 
L 1159 2956 
Q 1356 3278 1631 3431 
Q 1906 3584 2284 3584 
Q 2666 3584 2933 3390 
Q 3200 3197 3328 2828 
z
" transform="scale(0.015625)"/>
       <path id="DejaVuSans-65" d="M 3597 1894 
L 3597 1613 
L 953 1613 
Q 991 1019 1311 708 
Q 1631 397 2203 397 
Q 2534 397 2845 478 
Q 3156 559 3463 722 
L 3463 178 
Q 3153 47 2828 -22 
Q 2503 -91 2169 -91 
Q 1331 -91 842 396 
Q 353 884 353 1716 
Q 353 2575 817 3079 
Q 1281 3584 2069 3584 
Q 2775 3584 3186 3129 
Q 3597 2675 3597 1894 
z
M 3022 2063 
Q 3016 2534 2758 2815 
Q 2500 3097 2075 3097 
Q 1594 3097 1305 2825 
Q 1016 2553 972 2059 
L 3022 2063 
z
" transform="scale(0.015625)"/>
       <path id="DejaVuSans-20" transform="scale(0.015625)"/>
       <path id="DejaVuSans-28" d="M 1984 4856 
Q 1566 4138 1362 3434 
Q 1159 2731 1159 2009 
Q 1159 1288 1364 580 
Q 1569 -128 1984 -844 
L 1484 -844 
Q 1016 -109 783 600 
Q 550 1309 550 2009 
Q 550 2706 781 3412 
Q 1013 4119 1484 4856 
L 1984 4856 
z
" transform="scale(0.015625)"/>
       <path id="DejaVuSans-73" d="M 2834 3397 
L 2834 2853 
Q 2591 2978 2328 3040 
Q 2066 3103 1784 3103 
Q 1356 3103 1142 2972 
Q 928 2841 928 2578 
Q 928 2378 1081 2264 
Q 1234 2150 1697 2047 
L 1894 2003 
Q 2506 1872 2764 1633 
Q 3022 1394 3022 966 
Q 3022 478 2636 193 
Q 2250 -91 1575 -91 
Q 1294 -91 989 -36 
Q 684 19 347 128 
L 347 722 
Q 666 556 975 473 
Q 1284 391 1588 391 
Q 1994 391 2212 530 
Q 2431 669 2431 922 
Q 2431 1156 2273 1281 
Q 2116 1406 1581 1522 
L 1381 1569 
Q 847 1681 609 1914 
Q 372 2147 372 2553 
Q 372 3047 722 3315 
Q 1072 3584 1716 3584 
Q 2034 3584 2315 3537 
Q 2597 3491 2834 3397 
z
" transform="scale(0.015625)"/>
       <path id="DejaVuSans-29" d="M 513 4856 
L 1013 4856 
Q 1481 4119 1714 3412 
Q 1947 2706 1947 2009 
Q 1947 1309 1714 600 
Q 1481 -109 1013 -844 
L 513 -844 
Q 928 -128 1133 580 
Q 1338 1288 1338 2009 
Q 1338 2731 1133 3434 
Q 928 4138 513 4856 
z
" transform="scale(0.015625)"/>
      </defs>
      <use xlink:href="#DejaVuSans-54"/>
      <use xlink:href="#DejaVuSans-69" x="57.958984"/>
      <use xlink:href="#DejaVuSans-6d" x="85.742188"/>
      <use xlink:href="#DejaVuSans-65" x="183.154297"/>
      <use xlink:href="#DejaVuSans-20" x="244.677734"/>
      <use xlink:href="#DejaVuSans-28" x="276.464844"/>
      <use xlink:href="#DejaVuSans-73" x="315.478516"/>
      <use xlink:href="#DejaVuSans-29" x="367.578125"/>
     </g>
    </g>
   </g>
   <g id="matplotlib.axis_2">
    <g id="ytick_1">
     <g id="line2d_8">
      <defs>
       <path id="m2aad71a67f" d="M 0 0 
L -3.5 0 
" style="stroke: #000000; stroke-width: 0.8"/>
      </defs>
      <g>
       <use xlink:href="#m2aad71a67f" x="105.965516" y="290.329091" style="stroke: #000000; stroke-width: 0.8"/>
      </g>
     </g>
     <g id="text_9">
      <!-- −1.00 -->
      <g transform="translate(68.320203 294.12831) scale(0.1 -0.1)">
       <defs>
        <path id="DejaVuSans-2212" d="M 678 2272 
L 4684 2272 
L 4684 1741 
L 678 1741 
L 678 2272 
z
" transform="scale(0.015625)"/>
        <path id="DejaVuSans-2e" d="M 684 794 
L 1344 794 
L 1344 0 
L 684 0 
L 684 794 
z
" transform="scale(0.015625)"/>
       </defs>
       <use xlink:href="#DejaVuSans-2212"/>
       <use xlink:href="#DejaVuSans-31" x="83.789062"/>
       <use xlink:href="#DejaVuSans-2e" x="147.412109"/>
       <use xlink:href="#DejaVuSans-30" x="179.199219"/>
       <use xlink:href="#DejaVuSans-30" x="242.822266"/>
      </g>
     </g>
    </g>
    <g id="ytick_2">
     <g id="line2d_9">
      <g>
       <use xlink:href="#m2aad71a67f" x="105.965516" y="257.051818" style="stroke: #000000; stroke-width: 0.8"/>
      </g>
     </g>
     <g id="text_10">
      <!-- −0.75 -->
      <g transform="translate(68.320203 260.851037) scale(0.1 -0.1)">
       <defs>
        <path id="DejaVuSans-37" d="M 525 4666 
L 3525 4666 
L 3525 4397 
L 1831 0 
L 1172 0 
L 2766 4134 
L 525 4134 
L 525 4666 
z
" transform="scale(0.015625)"/>
       </defs>
       <use xlink:href="#DejaVuSans-2212"/>
       <use xlink:href="#DejaVuSans-30" x="83.789062"/>
       <use xlink:href="#DejaVuSans-2e" x="147.412109"/>
       <use xlink:href="#DejaVuSans-37" x="179.199219"/>
       <use xlink:href="#DejaVuSans-35" x="242.822266"/>
      </g>
     </g>
    </g>
    <g id="ytick_3">
     <g id="line2d_10">
      <g>
       <use xlink:href="#m2aad71a67f" x="105.965516" y="223.774545" style="stroke: #000000; stroke-width: 0.8"/>
      </g>
     </g>
     <g id="text_11">
      <!-- −0.50 -->
      <g transform="translate(68.320203 227.573764) scale(0.1 -0.1)">
       <use xlink:href="#DejaVuSans-2212"/>
       <use xlink:href="#DejaVuSans-30" x="83.789062"/>
       <use xlink:href="#DejaVuSans-2e" x="147.412109"/>
       <use xlink:href="#DejaVuSans-35" x="179.199219"/>
       <use xlink:href="#DejaVuSans-30" x="242.822266"/>
      </g>
     </g>
    </g>
    <g id="ytick_4">
     <g id="line2d_11">
      <g>
       <use xlink:href="#m2aad71a67f" x="105.965516" y="190.497273" style="stroke: #000000; stroke-width: 0.8"/>
      </g>
     </g>
     <g id="text_12">
      <!-- −0.25 -->
      <g transform="translate(68.320203 194.296491) scale(0.1 -0.1)">
       <use xlink:href="#DejaVuSans-2212"/>
       <use xlink:href="#DejaVuSans-30" x="83.789062"/>
       <use xlink:href="#DejaVuSans-2e" x="147.412109"/>
       <use xlink:href="#DejaVuSans-32" x="179.199219"/>
       <use xlink:href="#DejaVuSans-35" x="242.822266"/>
      </g>
     </g>
    </g>
    <g id="ytick_5">
     <g id="line2d_12">
      <g>
       <use xlink:href="#m2aad71a67f" x="105.965516" y="157.22" style="stroke: #000000; stroke-width: 0.8"/>
      </g>
     </g>
     <g id="text_13">
      <!-- 0.00 -->
      <g transform="translate(76.699891 161.019219) scale(0.1 -0.1)">
       <use xlink:href="#DejaVuSans-30"/>
       <use xlink:href="#DejaVuSans-2e" x="63.623047"/>
       <use xlink:href="#DejaVuSans-30" x="95.410156"/>
       <use xlink:href="#DejaVuSans-30" x="159.033203"/>
      </g>
     </g>
    </g>
    <g id="ytick_6">
     <g id="line2d_13">
      <g>
       <use xlink:href="#m2aad71a67f" x="105.965516" y="123.942727" style="stroke: #000000; stroke-width: 0.8"/>
      </g>
     </g>
     <g id="text_14">
      <!-- 0.25 -->
      <g transform="translate(76.699891 127.741946) scale(0.1 -0.1)">
       <use xlink:href="#DejaVuSans-30"/>
       <use xlink:href="#DejaVuSans-2e" x="63.623047"/>
       <use xlink:href="#DejaVuSans-32" x="95.410156"/>
       <use xlink:href="#DejaVuSans-35" x="159.033203"/>
      </g>
     </g>
    </g>
    <g id="ytick_7">
     <g id="line2d_14">
      <g>
       <use xlink:href="#m2aad71a67f" x="105.965516" y="90.665455" style="stroke: #000000; stroke-width: 0.8"/>
      </g>
     </g>
     <g id="text_15">
      <!-- 0.50 -->
      <g transform="translate(76.699891 94.464673) scale(0.1 -0.1)">
       <use xlink:href="#DejaVuSans-30"/>
       <use xlink:href="#DejaVuSans-2e" x="63.623047"/>
       <use xlink:href="#DejaVuSans-35" x="95.410156"/>
       <use xlink:href="#DejaVuSans-30" x="159.033203"/>
      </g>
     </g>
    </g>
    <g id="ytick_8">
     <g id="line2d_15">
      <g>
       <use xlink:href="#m2aad71a67f" x="105.965516" y="57.388182" style="stroke: #000000; stroke-width: 0.8"/>
      </g>
     </g>
     <g id="text_16">
      <!-- 0.75 -->
      <g transform="translate(76.699891 61.187401) scale(0.1 -0.1)">
       <use xlink:href="#DejaVuSans-30"/>
       <use xlink:href="#DejaVuSans-2e" x="63.623047"/>
       <use xlink:href="#DejaVuSans-37" x="95.410156"/>
       <use xlink:href="#DejaVuSans-35" x="159.033203"/>
      </g>
     </g>
    </g>
    <g id="ytick_9">
     <g id="line2d_16">
      <g>
       <use xlink:href="#m2aad71a67f" x="105.965516" y="24.110909" style="stroke: #000000; stroke-width: 0.8"/>
      </g>
     </g>
     <g id="text_17">
      <!-- 1.00 -->
      <g transform="translate(76.699891 27.910128) scale(0.1 -0.1)">
       <use xlink:href="#DejaVuSans-31"/>
       <use xlink:href="#DejaVuSans-2e" x="63.623047"/>
       <use xlink:href="#DejaVuSans-30" x="95.410156"/>
       <use xlink:href="#DejaVuSans-30" x="159.033203"/>
      </g>
     </g>
    </g>
    <g id="text_18">
     <!-- Normalised motion -->
     <g transform="translate(62.240516 204.652031) rotate(-90) scale(0.1 -0.1)">
      <defs>
       <path id="DejaVuSans-4e" d="M 628 4666 
L 1478 4666 
L 3547 763 
L 3547 4666 
L 4159 4666 
L 4159 0 
L 3309 0 
L 1241 3903 
L 1241 0 
L 628 0 
L 628 4666 
z
" transform="scale(0.015625)"/>
       <path id="DejaVuSans-6f" d="M 1959 3097 
Q 1497 3097 1228 2736 
Q 959 2375 959 1747 
Q 959 1119 1226 758 
Q 1494 397 1959 397 
Q 2419 397 2687 759 
Q 2956 1122 2956 1747 
Q 2956 2369 2687 2733 
Q 2419 3097 1959 3097 
z
M 1959 3584 
Q 2709 3584 3137 3096 
Q 3566 2609 3566 1747 
Q 3566 888 3137 398 
Q 2709 -91 1959 -91 
Q 1206 -91 779 398 
Q 353 888 353 1747 
Q 353 2609 779 3096 
Q 1206 3584 1959 3584 
z
" transform="scale(0.015625)"/>
       <path id="DejaVuSans-72" d="M 2631 2963 
Q 2534 3019 2420 3045 
Q 2306 3072 2169 3072 
Q 1681 3072 1420 2755 
Q 1159 2438 1159 1844 
L 1159 0 
L 581 0 
L 581 3500 
L 1159 3500 
L 1159 2956 
Q 1341 3275 1631 3429 
Q 1922 3584 2338 3584 
Q 2397 3584 2469 3576 
Q 2541 3569 2628 3553 
L 2631 2963 
z
" transform="scale(0.015625)"/>
       <path id="DejaVuSans-61" d="M 2194 1759 
Q 1497 1759 1228 1600 
Q 959 1441 959 1056 
Q 959 750 1161 570 
Q 1363 391 1709 391 
Q 2188 391 2477 730 
Q 2766 1069 2766 1631 
L 2766 1759 
L 2194 1759 
z
M 3341 1997 
L 3341 0 
L 2766 0 
L 2766 531 
Q 2569 213 2275 61 
Q 1981 -91 1556 -91 
Q 1019 -91 701 211 
Q 384 513 384 1019 
Q 384 1609 779 1909 
Q 1175 2209 1959 2209 
L 2766 2209 
L 2766 2266 
Q 2766 2663 2505 2880 
Q 2244 3097 1772 3097 
Q 1472 3097 1187 3025 
Q 903 2953 641 2809 
L 641 3341 
Q 956 3463 1253 3523 
Q 1550 3584 1831 3584 
Q 2591 3584 2966 3190 
Q 3341 2797 3341 1997 
z
" transform="scale(0.015625)"/>
       <path id="DejaVuSans-6c" d="M 603 4863 
L 1178 4863 
L 1178 0 
L 603 0 
L 603 4863 
z
" transform="scale(0.015625)"/>
       <path id="DejaVuSans-64" d="M 2906 2969 
L 2906 4863 
L 3481 4863 
L 3481 0 
L 2906 0 
L 2906 525 
Q 2725 213 2448 61 
Q 2172 -91 1784 -91 
Q 1150 -91 751 415 
Q 353 922 353 1747 
Q 353 2572 751 3078 
Q 1150 3584 1784 3584 
Q 2172 3584 2448 3432 
Q 2725 3281 2906 2969 
z
M 947 1747 
Q 947 1113 1208 752 
Q 1469 391 1925 391 
Q 2381 391 2643 752 
Q 2906 1113 2906 1747 
Q 2906 2381 2643 2742 
Q 2381 3103 1925 3103 
Q 1469 3103 1208 2742 
Q 947 2381 947 1747 
z
" transform="scale(0.015625)"/>
       <path id="DejaVuSans-74" d="M 1172 4494 
L 1172 3500 
L 2356 3500 
L 2356 3053 
L 1172 3053 
L 1172 1153 
Q 1172 725 1289 603 
Q 1406 481 1766 481 
L 2356 481 
L 2356 0 
L 1766 0 
Q 1100 0 847 248 
Q 594 497 594 1153 
L 594 3053 
L 172 3053 
L 172 3500 
L 594 3500 
L 594 4494 
L 1172 4494 
z
" transform="scale(0.015625)"/>
       <path id="DejaVuSans-6e" d="M 3513 2113 
L 3513 0 
L 2938 0 
L 2938 2094 
Q 2938 2591 2744 2837 
Q 2550 3084 2163 3084 
Q 1697 3084 1428 2787 
Q 1159 2491 1159 1978 
L 1159 0 
L 581 0 
L 581 3500 
L 1159 3500 
L 1159 2956 
Q 1366 3272 1645 3428 
Q 1925 3584 2291 3584 
Q 2894 3584 3203 3211 
Q 3513 2838 3513 2113 
z
" transform="scale(0.015625)"/>
      </defs>
      <use xlink:href="#DejaVuSans-4e"/>
      <use xlink:href="#DejaVuSans-6f" x="74.804688"/>
      <use xlink:href="#DejaVuSans-72" x="135.986328"/>
      <use xlink:href="#DejaVuSans-6d" x="175.349609"/>
      <use xlink:href="#DejaVuSans-61" x="272.761719"/>
      <use xlink:href="#DejaVuSans-6c" x="334.041016"/>
      <use xlink:href="#DejaVuSans-69" x="361.824219"/>
      <use xlink:href="#DejaVuSans-73" x="389.607422"/>
      <use xlink:href="#DejaVuSans-65" x="441.707031"/>
      <use xlink:href="#DejaVuSans-64" x="503.230469"/>
      <use xlink:href="#DejaVuSans-20" x="566.707031"/>
      <use xlink:href="#DejaVuSans-6d" x="598.494141"/>
      <use xlink:href="#DejaVuSans-6f" x="695.90625"/>
      <use xlink:href="#DejaVuSans-74" x="757.087891"/>
      <use xlink:href="#DejaVuSans-69" x="796.296875"/>
      <use xlink:href="#DejaVuSans-6f" x="824.080078"/>
      <use xlink:href="#DejaVuSans-6e" x="885.261719"/>
     </g>
    </g>
   </g>
   <g id="line2d_17">
    <path d="M 135.889668 176.108883 
L 137.974975 165.14042 
L 140.060282 184.809558 
L 142.145589 197.372209 
L 144.230896 244.748784 
L 146.316202 252.899351 
L 148.401509 268.919819 
L 150.486816 272.624622 
L 152.572123 280.258762 
L 154.65743 285.490393 
L 156.742736 274.62297 
L 158.828043 268.975952 
L 160.91335 286.321167 
L 162.998657 278.47372 
L 165.083964 276.879532 
L 167.16927 284.378952 
L 169.254577 269.694459 
L 171.339884 271.367234 
L 173.425191 274.780144 
L 175.510498 270.36806 
L 177.595804 282.661271 
L 179.681111 266.910244 
L 181.766418 264.462828 
L 183.851725 237.193231 
L 185.937032 213.067103 
L 188.022339 208.060005 
L 190.107645 176.367097 
L 192.192952 146.919524 
L 194.278259 148.120779 
L 196.363566 146.807257 
L 198.448873 126.049132 
L 200.534179 135.647941 
L 202.619486 146.526591 
L 204.704793 139.622184 
L 206.7901 144.449655 
L 208.875407 145.85299 
L 210.960713 146.043843 
L 213.04602 151.713315 
L 215.131327 147.828885 
L 217.216634 150.197714 
L 219.301941 147.525765 
L 221.387247 157.03476 
L 223.472554 153.15033 
L 227.643168 130.28159 
L 229.728475 133.290339 
L 231.813782 124.735611 
L 233.899088 120.289847 
L 235.984395 110.062345 
L 238.069702 77.213089 
L 240.155009 65.458759 
L 242.240316 46.350955 
L 244.325622 44.846581 
L 246.410929 32.070623 
L 248.496236 44.217887 
L 250.581543 29.084327 
L 252.66685 31.890996 
L 254.752156 31.251075 
L 256.837463 37.930948 
L 258.92277 39.266922 
L 261.008077 35.303906 
L 263.093384 28.624033 
L 265.17869 43.757593 
L 267.263997 28.208646 
L 269.349304 28.107606 
L 271.434611 35.562119 
L 273.519918 33.406597 
L 275.605224 45.273194 
L 277.690531 37.032814 
L 279.775838 65.874146 
L 281.861145 76.034288 
L 283.946452 78.144903 
L 286.031759 85.094216 
L 288.117065 113.722242 
L 290.202372 130.943963 
L 292.287679 151.140755 
L 294.372986 175.772083 
L 296.458293 179.5667 
L 298.543599 195.160554 
L 300.628906 200.706532 
L 302.714213 192.174258 
L 304.79952 194.026659 
L 306.884827 193.689859 
L 308.970133 196.810875 
L 311.05544 195.20546 
L 313.140747 195.901514 
L 317.311361 191.72519 
L 319.396667 186.751773 
L 321.481974 183.327636 
L 323.567281 177.781658 
L 325.652588 189.221642 
L 327.737895 184.742198 
L 329.823201 188.402094 
L 331.908508 179.723873 
L 333.993815 177.343818 
L 336.079122 179.061499 
L 338.164429 208.351898 
L 340.249736 213.325316 
L 342.335042 242.424862 
L 344.420349 267.494031 
L 346.505656 274.802597 
L 348.590963 271.737714 
L 350.67627 290.329091 
L 352.761576 287.118261 
L 354.846883 281.729457 
L 356.93219 279.225908 
L 359.017497 280.651696 
L 361.102804 280.056682 
L 363.18811 276.610092 
L 365.273417 269.829179 
L 367.358724 284.828019 
L 369.444031 269.121899 
L 371.529338 272.647075 
L 373.614644 274.398437 
L 375.699951 273.736063 
L 377.785258 266.865337 
L 379.870565 253.281058 
L 381.955872 235.239789 
L 384.041179 211.124888 
L 386.126485 191.096497 
L 390.297099 136.040875 
L 392.382406 150.018087 
L 394.467713 146.784804 
L 396.553019 143.080001 
L 398.638326 138.85877 
L 400.723633 142.417627 
L 402.80894 150.826408 
L 404.894247 149.961954 
L 406.979553 150.062994 
L 409.06486 148.378992 
L 411.150167 151.163208 
L 413.235474 157.03476 
L 415.320781 155.945772 
L 417.406087 154.374037 
L 419.491394 147.132831 
L 421.576701 137.073729 
L 425.747315 142.496214 
L 427.832621 125.734786 
L 429.917928 120.480701 
L 432.003235 104.16834 
L 434.088542 79.739092 
L 436.173849 70.52199 
L 438.259156 40.243643 
L 440.344462 47.65325 
L 442.429769 36.898094 
L 444.515076 39.547589 
L 446.600383 31.329662 
L 448.68569 37.560468 
L 450.770996 39.266922 
L 452.856303 33.777078 
L 454.94161 38.481055 
L 457.026917 42.590019 
L 459.112224 47.630797 
L 461.19753 41.298951 
L 463.282837 45.205834 
L 465.368144 41.658205 
L 467.453451 41.590845 
L 469.538758 34.765025 
L 471.624064 41.501031 
L 473.709371 33.967931 
L 475.794678 50.078212 
L 477.879985 77.740743 
L 479.965292 96.309666 
L 482.050598 77.965277 
L 484.135905 97.30884 
L 488.306519 149.33326 
L 490.391826 146.448004 
L 492.477133 167.565382 
L 494.562439 192.993805 
L 496.647746 190.175909 
L 498.733053 210.193073 
L 500.81836 197.001728 
L 502.903667 193.162205 
L 504.988973 193.992979 
L 507.07428 190.321856 
L 509.159587 188.256147 
L 511.244894 189.042015 
L 513.330201 193.768446 
L 515.415507 191.096497 
L 517.500814 187.30188 
L 519.586121 196.788422 
L 521.671428 188.480681 
L 523.756735 176.692671 
L 525.842041 185.112678 
L 527.927348 178.185819 
L 530.012655 177.961285 
L 532.097962 172.785787 
L 536.268576 216.221799 
L 540.439189 265.383416 
L 542.524496 260.645758 
L 544.609803 277.272466 
L 546.69511 271.737714 
L 548.780416 279.181001 
L 550.865723 283.379778 
L 552.95103 272.231688 
L 555.036337 276.980572 
L 557.121644 271.546861 
L 559.20695 277.025479 
L 561.292257 277.777666 
L 563.377564 268.874912 
L 565.462871 271.120247 
L 567.548178 266.764297 
L 569.633484 269.716913 
L 571.718791 266.85411 
L 573.804098 251.563377 
L 575.889405 255.009966 
L 577.974712 243.805743 
L 580.060018 224.069246 
L 582.145325 179.196219 
L 584.230632 165.948741 
L 586.315939 148.244272 
L 588.401246 149.456753 
L 590.486553 156.76532 
L 592.571859 154.329131 
L 594.657166 136.703249 
L 596.742473 153.99233 
L 598.82778 153.55449 
L 600.913087 157.461374 
L 602.998393 160.728336 
L 605.0837 163.759539 
L 607.169007 157.427694 
L 609.254314 158.628948 
L 613.424927 147.570671 
L 615.510234 147.346138 
L 617.595541 148.659659 
L 619.680848 148.547392 
L 621.766155 136.445035 
L 623.851461 142.5748 
L 625.936768 120.357207 
L 628.022075 115.731817 
L 630.107382 84.173629 
L 632.192689 70.780204 
L 634.277996 56.073257 
L 636.363302 36.729694 
L 638.448609 46.261142 
L 640.533916 24.110909 
L 642.619223 33.754624 
L 644.70453 32.867717 
L 646.789836 37.044041 
L 648.875143 37.448201 
L 650.96045 49.606692 
L 653.045757 39.143429 
L 655.131064 47.361356 
L 657.21637 48.865731 
L 659.301677 49.763865 
L 661.386984 41.164231 
L 663.472291 45.677355 
L 665.557598 40.950924 
L 667.642904 40.38959 
L 669.728211 37.369614 
L 671.813518 58.992193 
L 673.898825 78.728691 
L 675.984132 87.171151 
L 678.069438 73.69914 
L 680.154745 104.785807 
L 682.240052 122.254516 
L 684.325359 137.051276 
L 686.410666 153.745344 
L 688.495973 163.759539 
L 690.581279 187.964254 
L 692.666586 194.8013 
L 694.751893 192.432471 
L 696.8372 184.596251 
L 698.922507 179.521793 
L 701.007813 187.762174 
L 703.09312 186.280252 
L 705.178427 189.524762 
L 707.263734 187.178386 
L 709.349041 181.261928 
L 711.434347 193.566365 
L 713.519654 176.030297 
L 715.604961 179.039046 
L 717.690268 181.071074 
L 719.775575 181.856942 
L 721.860881 179.039046 
L 726.031495 178.949233 
L 728.116802 170.540452 
L 730.202109 192.544738 
L 732.287415 220.566523 
L 734.372722 252.809538 
L 734.372722 252.809538 
" clip-path="url(#p9d6940f543)" style="fill: none; stroke: #ff0000; stroke-width: 1.5; stroke-linecap: square"/>
   </g>
   <g id="line2d_18">
    <path d="M 135.889668 163.138787 
L 137.974975 168.690983 
L 140.060282 183.902949 
L 142.145589 202.466854 
L 144.230896 219.415667 
L 150.486816 277.065788 
L 152.572123 287.991543 
L 154.65743 289.330343 
L 156.742736 289.231766 
L 177.595804 289.571067 
L 179.681111 288.087994 
L 181.766418 280.979085 
L 183.851725 265.901007 
L 185.937032 248.52996 
L 194.278259 184.252742 
L 196.363566 175.518782 
L 198.448873 174.379589 
L 200.534179 174.55564 
L 221.387247 174.240567 
L 223.472554 174.8404 
L 225.557861 172.054472 
L 227.643168 161.700823 
L 229.728475 148.033719 
L 235.984395 109.734359 
L 238.069702 96.850377 
L 242.240316 70.030751 
L 246.410929 45.24371 
L 248.496236 33.585722 
L 250.581543 26.616149 
L 252.66685 24.916925 
L 254.752156 24.963345 
L 261.008077 24.679838 
L 275.605224 24.296288 
L 277.690531 26.639545 
L 279.775838 31.381158 
L 281.861145 39.659799 
L 288.117065 72.031248 
L 290.202372 82.913107 
L 298.543599 129.633293 
L 300.628906 142.540578 
L 302.714213 153.632564 
L 304.79952 160.14272 
L 306.884827 161.181748 
L 311.05544 161.162708 
L 325.652588 161.40605 
L 331.908508 161.481262 
L 333.993815 163.92739 
L 336.079122 175.145829 
L 340.249736 212.485918 
L 344.420349 250.547259 
L 346.505656 270.10424 
L 348.590963 285.147341 
L 350.67627 289.575933 
L 352.761576 289.39591 
L 373.614644 289.848937 
L 375.699951 289.553781 
L 377.785258 284.573813 
L 379.870565 271.780371 
L 381.955872 254.269122 
L 390.297099 188.867607 
L 392.382406 177.433304 
L 394.467713 174.181167 
L 396.553019 174.398691 
L 417.406087 174.105219 
L 419.491394 174.305544 
L 421.576701 173.537794 
L 423.662008 165.438897 
L 429.917928 126.516144 
L 434.088542 100.785604 
L 438.259156 74.062981 
L 442.429769 49.036378 
L 444.515076 36.857576 
L 446.600383 27.960774 
L 448.68569 24.924964 
L 452.856303 24.853506 
L 467.453451 24.37826 
L 473.709371 24.240814 
L 475.794678 27.980227 
L 477.879985 33.756228 
L 479.965292 42.873034 
L 482.050598 54.402916 
L 486.221212 75.794798 
L 490.391826 98.649393 
L 494.562439 121.989547 
L 498.733053 146.733094 
L 500.81836 156.640861 
L 502.903667 160.948331 
L 504.988973 161.189166 
L 509.159587 161.176189 
L 523.756735 161.412216 
L 527.927348 161.433383 
L 530.012655 162.489827 
L 532.097962 171.198486 
L 534.183269 188.848548 
L 536.268576 208.135296 
L 540.439189 245.087648 
L 542.524496 264.465405 
L 544.609803 281.888807 
L 546.69511 289.815029 
L 548.780416 290.005778 
L 552.95103 289.995163 
L 571.718791 290.329091 
L 573.804098 287.316003 
L 575.889405 277.643434 
L 586.315939 194.430451 
L 588.401246 180.571493 
L 590.486553 174.15596 
L 592.571859 173.965622 
L 596.742473 174.013711 
L 615.510234 173.750152 
L 617.595541 174.039506 
L 619.680848 168.468579 
L 621.766155 156.23009 
L 623.851461 142.761971 
L 628.022075 117.54168 
L 632.192689 91.597171 
L 636.363302 65.376823 
L 640.533916 40.735846 
L 642.619223 29.976538 
L 644.70453 25.200841 
L 646.789836 24.769433 
L 655.131064 24.499081 
L 663.472291 24.24991 
L 669.728211 24.110909 
L 671.813518 27.786217 
L 673.898825 33.398718 
L 675.984132 42.617033 
L 678.069438 54.197833 
L 680.154745 64.421275 
L 684.325359 86.471864 
L 692.666586 133.675115 
L 694.751893 146.304689 
L 696.8372 156.397535 
L 698.922507 160.979955 
L 701.007813 161.239334 
L 705.178427 161.238675 
L 721.860881 161.484272 
L 723.946188 161.491307 
L 726.031495 161.893268 
L 728.116802 166.995639 
L 730.202109 182.812564 
L 734.372722 220.281715 
L 734.372722 220.281715 
" clip-path="url(#p9d6940f543)" style="fill: none; stroke-dasharray: 5.55,2.4; stroke-dashoffset: 0; stroke: #ff0000; stroke-width: 1.5"/>
   </g>
   <g id="line2d_19">
    <path d="M 135.889668 50.531047 
L 140.35596 55.815074 
L 144.822251 49.300796 
L 149.288543 52.507515 
L 153.754834 30.947876 
L 158.221126 52.507515 
L 162.687417 25.926033 
L 167.153708 57.690702 
L 171.62 29.314264 
L 176.086291 41.858788 
L 180.552583 25.986537 
L 185.018874 45.206683 
L 189.485166 36.554592 
L 193.951457 47.223488 
L 198.417749 40.991562 
L 202.88404 49.764661 
L 207.350331 34.114259 
L 211.816623 57.569694 
L 216.282914 24.110909 
L 220.749206 41.858788 
L 225.215497 25.845361 
L 229.681789 142.416656 
L 234.14808 161.95949 
L 238.614372 178.577959 
L 243.080663 177.32754 
L 247.546955 191.203154 
L 252.013246 188.944333 
L 256.479537 188.843493 
L 260.945829 250.456868 
L 265.41212 285.992961 
L 269.878412 248.016534 
L 274.344703 270.322391 
L 278.810995 248.924096 
L 283.277286 264.231642 
L 287.743578 248.480399 
L 292.209869 256.527449 
L 296.67616 243.297212 
L 301.142452 257.314003 
L 305.608743 248.762752 
L 310.075035 252.029975 
L 314.541326 256.527449 
L 319.007618 288.836656 
L 323.473909 250.315691 
L 327.940201 267.176176 
L 332.406492 239.626628 
L 336.872783 251.26359 
L 341.339075 242.066961 
L 345.805366 253.603083 
L 350.271658 246.564435 
L 354.737949 255.095518 
L 359.204241 238.739234 
L 363.670532 250.315691 
L 368.136824 268.78962 
L 372.603115 289.885394 
L 377.069406 255.317366 
L 381.535698 278.268601 
L 386.001989 258.645094 
L 390.468281 270.140879 
L 394.934572 255.035014 
L 399.400864 258.443413 
L 403.867155 247.492165 
L 408.333447 258.766102 
L 412.799738 257.071986 
L 417.26603 258.544253 
L 421.732321 261.246771 
L 426.198612 288.130774 
L 430.664904 255.619887 
L 435.131195 265.199708 
L 439.597487 127.714152 
L 444.063778 145.562871 
L 448.53007 120.675504 
L 452.996361 129.509107 
L 457.462653 109.220055 
L 461.928944 124.204912 
L 466.395235 110.591482 
L 470.861527 128.319193 
L 475.327818 52.588187 
L 479.79411 90.867135 
L 484.260401 60.131036 
L 488.726693 78.705804 
L 493.192984 51.84197 
L 497.659276 68.157917 
L 502.125567 51.398273 
L 506.591858 62.268848 
L 511.05815 44.682314 
L 515.524441 62.047 
L 519.990733 59.001625 
L 524.457024 58.759609 
L 528.923316 61.300782 
L 533.389607 85.804956 
L 537.855899 41.818452 
L 542.32219 63.035234 
L 546.788482 37.986523 
L 551.254773 56.077259 
L 555.721064 44.178113 
L 560.187356 53.334405 
L 564.653647 32.621824 
L 569.119939 49.562981 
L 573.58623 40.709209 
L 578.052522 53.939446 
L 582.518813 54.645328 
L 586.985105 129.69062 
L 591.451396 147.720851 
L 595.917687 204.211543 
L 600.383979 211.492207 
L 604.85027 224.339251 
L 609.316562 212.07708 
L 613.782853 222.241774 
L 618.249145 216.433377 
L 622.715436 227.041769 
L 627.181728 217.482116 
L 631.648019 227.84849 
L 636.11431 255.377871 
L 640.580602 273.125749 
L 645.046893 242.752675 
L 649.513185 263.929121 
L 653.979476 248.78292 
L 658.445768 255.781231 
L 662.912059 242.672003 
L 667.378351 259.330807 
L 671.844642 237.872008 
L 676.310933 247.229981 
L 680.777225 235.371171 
L 685.243516 240.594694 
L 689.709808 257.616523 
L 694.176099 290.329091 
L 698.642391 250.4367 
L 703.108682 270.120711 
L 707.574974 242.38965 
L 712.041265 255.014846 
L 716.507557 239.908981 
L 720.973848 251.384598 
L 725.440139 238.940915 
L 729.906431 252.453504 
L 734.372722 245.596369 
L 734.372722 245.596369 
" clip-path="url(#p9d6940f543)" style="fill: none; stroke: #0000ff; stroke-width: 1.5; stroke-linecap: square"/>
   </g>
   <g id="line2d_20">
    <path d="M 135.889668 29.325856 
L 140.35596 29.30394 
L 144.822251 28.778654 
L 153.754834 28.238111 
L 162.687417 27.331546 
L 167.153708 27.195093 
L 176.086291 26.601431 
L 202.88404 25.430573 
L 211.816623 25.149025 
L 220.749206 24.843181 
L 252.013246 24.110909 
L 260.945829 24.142206 
L 265.41212 29.012353 
L 269.878412 136.536725 
L 274.344703 237.799843 
L 278.810995 274.169278 
L 283.277286 274.622376 
L 292.209869 275.845583 
L 296.67616 276.948261 
L 305.608743 278.652752 
L 310.075035 279.328667 
L 323.473909 280.931925 
L 327.940201 281.563728 
L 336.872783 282.504065 
L 350.271658 283.669895 
L 354.737949 283.938062 
L 359.204241 284.073961 
L 363.670532 284.459542 
L 381.535698 285.532144 
L 386.001989 286.029158 
L 390.468281 286.180805 
L 394.934572 286.531142 
L 408.333447 287.178267 
L 412.799738 287.66976 
L 421.732321 288.264604 
L 470.861527 290.329091 
L 475.327818 240.486398 
L 479.79411 119.606526 
L 484.260401 46.965318 
L 488.726693 48.935727 
L 493.192984 47.980006 
L 497.659276 47.159146 
L 502.125567 45.337598 
L 506.591858 44.253411 
L 515.524441 42.435849 
L 524.457024 41.243042 
L 528.923316 40.534227 
L 537.855899 39.443525 
L 542.32219 39.2207 
L 551.254773 38.133023 
L 555.721064 37.703422 
L 560.187356 37.496033 
L 573.58623 36.45627 
L 582.518813 35.808045 
L 586.985105 35.756252 
L 591.451396 35.305656 
L 595.917687 35.387273 
L 600.383979 35.02965 
L 618.249145 34.253231 
L 622.715436 34.10901 
L 627.181728 41.735359 
L 631.648019 153.376567 
L 636.11431 272.021163 
L 640.580602 280.341706 
L 645.046893 280.594073 
L 653.979476 281.672994 
L 658.445768 282.693558 
L 671.844642 284.75282 
L 676.310933 285.041772 
L 680.777225 285.663943 
L 694.176099 287.0376 
L 698.642391 287.654245 
L 725.440139 289.870817 
L 729.906431 289.990351 
L 734.372722 290.326295 
L 734.372722 290.326295 
" clip-path="url(#p9d6940f543)" style="fill: none; stroke-dasharray: 5.55,2.4; stroke-dashoffset: 0; stroke: #0000ff; stroke-width: 1.5"/>
   </g>
   <g id="patch_3">
    <path d="M 105.965516 303.64 
L 105.965516 10.8 
" style="fill: none; stroke: #000000; stroke-width: 0.8; stroke-linejoin: miter; stroke-linecap: square"/>
   </g>
   <g id="patch_4">
    <path d="M 764.296875 303.64 
L 764.296875 10.8 
" style="fill: none; stroke: #000000; stroke-width: 0.8; stroke-linejoin: miter; stroke-linecap: square"/>
   </g>
   <g id="patch_5">
    <path d="M 105.965516 303.64 
L 764.296875 303.64 
" style="fill: none; stroke: #000000; stroke-width: 0.8; stroke-linejoin: miter; stroke-linecap: square"/>
   </g>
   <g id="patch_6">
    <path d="M 105.965516 10.8 
L 764.296875 10.8 
" style="fill: none; stroke: #000000; stroke-width: 0.8; stroke-linejoin: miter; stroke-linecap: square"/>
   </g>
   <g id="legend_1">
    <g id="patch_7">
     <path d="M 687.065625 77.5125 
L 757.296875 77.5125 
Q 759.296875 77.5125 759.296875 75.5125 
L 759.296875 17.8 
Q 759.296875 15.8 757.296875 15.8 
L 687.065625 15.8 
Q 685.065625 15.8 685.065625 17.8 
L 685.065625 75.5125 
Q 685.065625 77.5125 687.065625 77.5125 
z
" style="fill: #ffffff; opacity: 0.8; stroke: #cccccc; stroke-linejoin: miter"/>
    </g>
    <g id="line2d_21">
     <path d="M 689.065625 23.898438 
L 699.065625 23.898438 
L 709.065625 23.898438 
" style="fill: none; stroke: #ff0000; stroke-width: 1.5; stroke-linecap: square"/>
    </g>
    <g id="text_19">
     <!-- Ry pred -->
     <g transform="translate(717.065625 27.398438) scale(0.1 -0.1)">
      <defs>
       <path id="DejaVuSans-52" d="M 2841 2188 
Q 3044 2119 3236 1894 
Q 3428 1669 3622 1275 
L 4263 0 
L 3584 0 
L 2988 1197 
Q 2756 1666 2539 1819 
Q 2322 1972 1947 1972 
L 1259 1972 
L 1259 0 
L 628 0 
L 628 4666 
L 2053 4666 
Q 2853 4666 3247 4331 
Q 3641 3997 3641 3322 
Q 3641 2881 3436 2590 
Q 3231 2300 2841 2188 
z
M 1259 4147 
L 1259 2491 
L 2053 2491 
Q 2509 2491 2742 2702 
Q 2975 2913 2975 3322 
Q 2975 3731 2742 3939 
Q 2509 4147 2053 4147 
L 1259 4147 
z
" transform="scale(0.015625)"/>
       <path id="DejaVuSans-79" d="M 2059 -325 
Q 1816 -950 1584 -1140 
Q 1353 -1331 966 -1331 
L 506 -1331 
L 506 -850 
L 844 -850 
Q 1081 -850 1212 -737 
Q 1344 -625 1503 -206 
L 1606 56 
L 191 3500 
L 800 3500 
L 1894 763 
L 2988 3500 
L 3597 3500 
L 2059 -325 
z
" transform="scale(0.015625)"/>
       <path id="DejaVuSans-70" d="M 1159 525 
L 1159 -1331 
L 581 -1331 
L 581 3500 
L 1159 3500 
L 1159 2969 
Q 1341 3281 1617 3432 
Q 1894 3584 2278 3584 
Q 2916 3584 3314 3078 
Q 3713 2572 3713 1747 
Q 3713 922 3314 415 
Q 2916 -91 2278 -91 
Q 1894 -91 1617 61 
Q 1341 213 1159 525 
z
M 3116 1747 
Q 3116 2381 2855 2742 
Q 2594 3103 2138 3103 
Q 1681 3103 1420 2742 
Q 1159 2381 1159 1747 
Q 1159 1113 1420 752 
Q 1681 391 2138 391 
Q 2594 391 2855 752 
Q 3116 1113 3116 1747 
z
" transform="scale(0.015625)"/>
      </defs>
      <use xlink:href="#DejaVuSans-52"/>
      <use xlink:href="#DejaVuSans-79" x="63.982422"/>
      <use xlink:href="#DejaVuSans-20" x="123.162109"/>
      <use xlink:href="#DejaVuSans-70" x="154.949219"/>
      <use xlink:href="#DejaVuSans-72" x="218.425781"/>
      <use xlink:href="#DejaVuSans-65" x="257.289062"/>
      <use xlink:href="#DejaVuSans-64" x="318.8125"/>
     </g>
    </g>
    <g id="line2d_22">
     <path d="M 689.065625 38.576563 
L 699.065625 38.576563 
L 709.065625 38.576563 
" style="fill: none; stroke-dasharray: 5.55,2.4; stroke-dashoffset: 0; stroke: #ff0000; stroke-width: 1.5"/>
    </g>
    <g id="text_20">
     <!-- Ry gnd -->
     <g transform="translate(717.065625 42.076563) scale(0.1 -0.1)">
      <defs>
       <path id="DejaVuSans-67" d="M 2906 1791 
Q 2906 2416 2648 2759 
Q 2391 3103 1925 3103 
Q 1463 3103 1205 2759 
Q 947 2416 947 1791 
Q 947 1169 1205 825 
Q 1463 481 1925 481 
Q 2391 481 2648 825 
Q 2906 1169 2906 1791 
z
M 3481 434 
Q 3481 -459 3084 -895 
Q 2688 -1331 1869 -1331 
Q 1566 -1331 1297 -1286 
Q 1028 -1241 775 -1147 
L 775 -588 
Q 1028 -725 1275 -790 
Q 1522 -856 1778 -856 
Q 2344 -856 2625 -561 
Q 2906 -266 2906 331 
L 2906 616 
Q 2728 306 2450 153 
Q 2172 0 1784 0 
Q 1141 0 747 490 
Q 353 981 353 1791 
Q 353 2603 747 3093 
Q 1141 3584 1784 3584 
Q 2172 3584 2450 3431 
Q 2728 3278 2906 2969 
L 2906 3500 
L 3481 3500 
L 3481 434 
z
" transform="scale(0.015625)"/>
      </defs>
      <use xlink:href="#DejaVuSans-52"/>
      <use xlink:href="#DejaVuSans-79" x="63.982422"/>
      <use xlink:href="#DejaVuSans-20" x="123.162109"/>
      <use xlink:href="#DejaVuSans-67" x="154.949219"/>
      <use xlink:href="#DejaVuSans-6e" x="218.425781"/>
      <use xlink:href="#DejaVuSans-64" x="281.804688"/>
     </g>
    </g>
    <g id="line2d_23">
     <path d="M 689.065625 53.254688 
L 699.065625 53.254688 
L 709.065625 53.254688 
" style="fill: none; stroke: #0000ff; stroke-width: 1.5; stroke-linecap: square"/>
    </g>
    <g id="text_21">
     <!-- Tz pred -->
     <g transform="translate(717.065625 56.754688) scale(0.1 -0.1)">
      <defs>
       <path id="DejaVuSans-7a" d="M 353 3500 
L 3084 3500 
L 3084 2975 
L 922 459 
L 3084 459 
L 3084 0 
L 275 0 
L 275 525 
L 2438 3041 
L 353 3041 
L 353 3500 
z
" transform="scale(0.015625)"/>
      </defs>
      <use xlink:href="#DejaVuSans-54"/>
      <use xlink:href="#DejaVuSans-7a" x="61.083984"/>
      <use xlink:href="#DejaVuSans-20" x="113.574219"/>
      <use xlink:href="#DejaVuSans-70" x="145.361328"/>
      <use xlink:href="#DejaVuSans-72" x="208.837891"/>
      <use xlink:href="#DejaVuSans-65" x="247.701172"/>
      <use xlink:href="#DejaVuSans-64" x="309.224609"/>
     </g>
    </g>
    <g id="line2d_24">
     <path d="M 689.065625 67.932813 
L 699.065625 67.932813 
L 709.065625 67.932813 
" style="fill: none; stroke-dasharray: 5.55,2.4; stroke-dashoffset: 0; stroke: #0000ff; stroke-width: 1.5"/>
    </g>
    <g id="text_22">
     <!-- Tz gnd -->
     <g transform="translate(717.065625 71.432813) scale(0.1 -0.1)">
      <use xlink:href="#DejaVuSans-54"/>
      <use xlink:href="#DejaVuSans-7a" x="61.083984"/>
      <use xlink:href="#DejaVuSans-20" x="113.574219"/>
      <use xlink:href="#DejaVuSans-67" x="145.361328"/>
      <use xlink:href="#DejaVuSans-6e" x="208.837891"/>
      <use xlink:href="#DejaVuSans-64" x="272.216797"/>
     </g>
    </g>
   </g>
  </g>
 </g>
 <defs>
  <clipPath id="p9d6940f543">
   <rect x="105.965516" y="10.8" width="658.331359" height="292.84"/>
  </clipPath>
 </defs>
</svg>
